<?xml version="1.0" standalone="no"?>
<!DOCTYPE svg PUBLIC "-//W3C//DTD SVG 20010904//EN"
 "http://www.w3.org/TR/2001/REC-SVG-20010904/DTD/svg10.dtd">
<svg version="1.0" xmlns="http://www.w3.org/2000/svg"
 width="7270.000000pt" height="7270.000000pt" viewBox="0 0 7270.000000 7270.000000"
 preserveAspectRatio="xMidYMid meet">
<metadata>
Created by potrace 1.14, written by Peter Selinger 2001-2017
</metadata>
<g transform="translate(0.000000,7270.000000) scale(0.100000,-0.100000)"
fill="#000000" stroke="none">
<path d="M7909 68203 c-13 -16 -12 -17 4 -4 16 13 21 21 13 21 -2 0 -10 -8
-17 -17z"/>
<path d="M7990 68216 c0 -2 8 -10 18 -17 15 -13 16 -12 3 4 -13 16 -21 21 -21
13z"/>
<path d="M8389 68203 c-13 -16 -12 -17 4 -4 16 13 21 21 13 21 -2 0 -10 -8
-17 -17z"/>
<path d="M8470 68216 c0 -2 8 -10 18 -17 15 -13 16 -12 3 4 -13 16 -21 21 -21
13z"/>
<path d="M8869 68203 c-13 -16 -12 -17 4 -4 16 13 21 21 13 21 -2 0 -10 -8
-17 -17z"/>
<path d="M9829 68203 c-13 -16 -12 -17 4 -4 16 13 21 21 13 21 -2 0 -10 -8
-17 -17z"/>
<path d="M9910 68216 c0 -2 8 -10 18 -17 15 -13 16 -12 3 4 -13 16 -21 21 -21
13z"/>
<path d="M10309 68203 c-13 -16 -12 -17 4 -4 9 7 17 15 17 17 0 8 -8 3 -21
-13z"/>
<path d="M10390 68216 c0 -2 8 -10 18 -17 15 -13 16 -12 3 4 -13 16 -21 21
-21 13z"/>
<path d="M10789 68203 c-13 -16 -12 -17 4 -4 9 7 17 15 17 17 0 8 -8 3 -21
-13z"/>
<path d="M11749 68203 c-13 -16 -12 -17 4 -4 9 7 17 15 17 17 0 8 -8 3 -21
-13z"/>
<path d="M11830 68216 c0 -2 8 -10 18 -17 15 -13 16 -12 3 4 -13 16 -21 21
-21 13z"/>
<path d="M12229 68203 c-13 -16 -12 -17 4 -4 9 7 17 15 17 17 0 8 -8 3 -21
-13z"/>
<path d="M12310 68216 c0 -2 8 -10 18 -17 15 -13 16 -12 3 4 -13 16 -21 21
-21 13z"/>
<path d="M12709 68203 c-13 -16 -12 -17 4 -4 9 7 17 15 17 17 0 8 -8 3 -21
-13z"/>
<path d="M13669 68203 c-13 -16 -12 -17 4 -4 9 7 17 15 17 17 0 8 -8 3 -21
-13z"/>
<path d="M13750 68216 c0 -2 8 -10 18 -17 15 -13 16 -12 3 4 -13 16 -21 21
-21 13z"/>
<path d="M14149 68203 c-13 -16 -12 -17 4 -4 9 7 17 15 17 17 0 8 -8 3 -21
-13z"/>
<path d="M14230 68216 c0 -2 8 -10 18 -17 15 -13 16 -12 3 4 -13 16 -21 21
-21 13z"/>
<path d="M14629 68203 c-13 -16 -12 -17 4 -4 9 7 17 15 17 17 0 8 -8 3 -21
-13z"/>
<path d="M15350 68216 c0 -2 8 -10 18 -17 15 -13 16 -12 3 4 -13 16 -21 21
-21 13z"/>
<path d="M15749 68203 c-13 -16 -12 -17 4 -4 9 7 17 15 17 17 0 8 -8 3 -21
-13z"/>
<path d="M15830 68216 c0 -2 8 -10 18 -17 15 -13 16 -12 3 4 -13 16 -21 21
-21 13z"/>
<path d="M15990 68216 c0 -2 8 -10 18 -17 15 -13 16 -12 3 4 -13 16 -21 21
-21 13z"/>
<path d="M16389 68203 c-13 -16 -12 -17 4 -4 9 7 17 15 17 17 0 8 -8 3 -21
-13z"/>
<path d="M16470 68216 c0 -2 8 -10 18 -17 15 -13 16 -12 3 4 -13 16 -21 21
-21 13z"/>
<path d="M16630 68216 c0 -2 8 -10 18 -17 15 -13 16 -12 3 4 -13 16 -21 21
-21 13z"/>
<path d="M17029 68203 c-13 -16 -12 -17 4 -4 9 7 17 15 17 17 0 8 -8 3 -21
-13z"/>
<path d="M17110 68216 c0 -2 8 -10 18 -17 15 -13 16 -12 3 4 -13 16 -21 21
-21 13z"/>
<path d="M17270 68216 c0 -2 8 -10 18 -17 15 -13 16 -12 3 4 -13 16 -21 21
-21 13z"/>
<path d="M17669 68203 c-13 -16 -12 -17 4 -4 9 7 17 15 17 17 0 8 -8 3 -21
-13z"/>
<path d="M17750 68216 c0 -2 8 -10 18 -17 15 -13 16 -12 3 4 -13 16 -21 21
-21 13z"/>
<path d="M17910 68216 c0 -2 8 -10 18 -17 15 -13 16 -12 3 4 -13 16 -21 21
-21 13z"/>
<path d="M18309 68203 c-13 -16 -12 -17 4 -4 9 7 17 15 17 17 0 8 -8 3 -21
-13z"/>
<path d="M18390 68216 c0 -2 8 -10 18 -17 15 -13 16 -12 3 4 -13 16 -21 21
-21 13z"/>
<path d="M18550 68216 c0 -2 8 -10 18 -17 15 -13 16 -12 3 4 -13 16 -21 21
-21 13z"/>
<path d="M18949 68203 c-13 -16 -12 -17 4 -4 9 7 17 15 17 17 0 8 -8 3 -21
-13z"/>
<path d="M19030 68216 c0 -2 8 -10 18 -17 15 -13 16 -12 3 4 -13 16 -21 21
-21 13z"/>
<path d="M19190 68216 c0 -2 8 -10 18 -17 15 -13 16 -12 3 4 -13 16 -21 21
-21 13z"/>
<path d="M19589 68203 c-13 -16 -12 -17 4 -4 9 7 17 15 17 17 0 8 -8 3 -21
-13z"/>
<path d="M19670 68216 c0 -2 8 -10 18 -17 15 -13 16 -12 3 4 -13 16 -21 21
-21 13z"/>
<path d="M19830 68216 c0 -2 8 -10 18 -17 15 -13 16 -12 3 4 -13 16 -21 21
-21 13z"/>
<path d="M20229 68203 c-13 -16 -12 -17 4 -4 9 7 17 15 17 17 0 8 -8 3 -21
-13z"/>
<path d="M20310 68216 c0 -2 8 -10 18 -17 15 -13 16 -12 3 4 -13 16 -21 21
-21 13z"/>
<path d="M21349 68203 c-13 -16 -12 -17 4 -4 16 13 21 21 13 21 -2 0 -10 -8
-17 -17z"/>
<path d="M21430 68216 c0 -2 8 -10 18 -17 15 -13 16 -12 3 4 -13 16 -21 21
-21 13z"/>
<path d="M21829 68203 c-13 -16 -12 -17 4 -4 16 13 21 21 13 21 -2 0 -10 -8
-17 -17z"/>
<path d="M21910 68216 c0 -2 8 -10 18 -17 15 -13 16 -12 3 4 -13 16 -21 21
-21 13z"/>
<path d="M22309 68203 c-13 -16 -12 -17 4 -4 16 13 21 21 13 21 -2 0 -10 -8
-17 -17z"/>
<path d="M23269 68203 c-13 -16 -12 -17 4 -4 16 13 21 21 13 21 -2 0 -10 -8
-17 -17z"/>
<path d="M23350 68216 c0 -2 8 -10 18 -17 15 -13 16 -12 3 4 -13 16 -21 21
-21 13z"/>
<path d="M23749 68203 c-13 -16 -12 -17 4 -4 16 13 21 21 13 21 -2 0 -10 -8
-17 -17z"/>
<path d="M23830 68216 c0 -2 8 -10 18 -17 15 -13 16 -12 3 4 -13 16 -21 21
-21 13z"/>
<path d="M24229 68203 c-13 -16 -12 -17 4 -4 16 13 21 21 13 21 -2 0 -10 -8
-17 -17z"/>
<path d="M25189 68203 c-13 -16 -12 -17 4 -4 16 13 21 21 13 21 -2 0 -10 -8
-17 -17z"/>
<path d="M25270 68216 c0 -2 8 -10 18 -17 15 -13 16 -12 3 4 -13 16 -21 21
-21 13z"/>
<path d="M25669 68203 c-13 -16 -12 -17 4 -4 16 13 21 21 13 21 -2 0 -10 -8
-17 -17z"/>
<path d="M25750 68216 c0 -2 8 -10 18 -17 15 -13 16 -12 3 4 -13 16 -21 21
-21 13z"/>
<path d="M26149 68203 c-13 -16 -12 -17 4 -4 16 13 21 21 13 21 -2 0 -10 -8
-17 -17z"/>
<path d="M27109 68203 c-13 -16 -12 -17 4 -4 16 13 21 21 13 21 -2 0 -10 -8
-17 -17z"/>
<path d="M27190 68216 c0 -2 8 -10 18 -17 15 -13 16 -12 3 4 -13 16 -21 21
-21 13z"/>
<path d="M27589 68203 c-13 -16 -12 -17 4 -4 16 13 21 21 13 21 -2 0 -10 -8
-17 -17z"/>
<path d="M27670 68216 c0 -2 8 -10 18 -17 15 -13 16 -12 3 4 -13 16 -21 21
-21 13z"/>
<path d="M28069 68203 c-13 -16 -12 -17 4 -4 16 13 21 21 13 21 -2 0 -10 -8
-17 -17z"/>
<path d="M29029 68203 c-13 -16 -12 -17 4 -4 16 13 21 21 13 21 -2 0 -10 -8
-17 -17z"/>
<path d="M29110 68216 c0 -2 8 -10 18 -17 15 -13 16 -12 3 4 -13 16 -21 21
-21 13z"/>
<path d="M29509 68203 c-13 -16 -12 -17 4 -4 16 13 21 21 13 21 -2 0 -10 -8
-17 -17z"/>
<path d="M29590 68216 c0 -2 8 -10 18 -17 15 -13 16 -12 3 4 -13 16 -21 21
-21 13z"/>
<path d="M29989 68203 c-13 -16 -12 -17 4 -4 16 13 21 21 13 21 -2 0 -10 -8
-17 -17z"/>
<path d="M30710 68216 c0 -2 8 -10 18 -17 15 -13 16 -12 3 4 -13 16 -21 21
-21 13z"/>
<path d="M31109 68203 c-13 -16 -12 -17 4 -4 16 13 21 21 13 21 -2 0 -10 -8
-17 -17z"/>
<path d="M31190 68216 c0 -2 8 -10 18 -17 15 -13 16 -12 3 4 -13 16 -21 21
-21 13z"/>
<path d="M31350 68216 c0 -2 8 -10 18 -17 15 -13 16 -12 3 4 -13 16 -21 21
-21 13z"/>
<path d="M31749 68203 c-13 -16 -12 -17 4 -4 16 13 21 21 13 21 -2 0 -10 -8
-17 -17z"/>
<path d="M31830 68216 c0 -2 8 -10 18 -17 15 -13 16 -12 3 4 -13 16 -21 21
-21 13z"/>
<path d="M31990 68216 c0 -2 8 -10 18 -17 15 -13 16 -12 3 4 -13 16 -21 21
-21 13z"/>
<path d="M32389 68203 c-13 -16 -12 -17 4 -4 16 13 21 21 13 21 -2 0 -10 -8
-17 -17z"/>
<path d="M32470 68216 c0 -2 8 -10 18 -17 15 -13 16 -12 3 4 -13 16 -21 21
-21 13z"/>
<path d="M32630 68216 c0 -2 8 -10 18 -17 15 -13 16 -12 3 4 -13 16 -21 21
-21 13z"/>
<path d="M33029 68203 c-13 -16 -12 -17 4 -4 16 13 21 21 13 21 -2 0 -10 -8
-17 -17z"/>
<path d="M33110 68216 c0 -2 8 -10 18 -17 15 -13 16 -12 3 4 -13 16 -21 21
-21 13z"/>
<path d="M33270 68216 c0 -2 8 -10 18 -17 15 -13 16 -12 3 4 -13 16 -21 21
-21 13z"/>
<path d="M33669 68203 c-13 -16 -12 -17 4 -4 16 13 21 21 13 21 -2 0 -10 -8
-17 -17z"/>
<path d="M33750 68216 c0 -2 8 -10 18 -17 15 -13 16 -12 3 4 -13 16 -21 21
-21 13z"/>
<path d="M33910 68216 c0 -2 8 -10 18 -17 15 -13 16 -12 3 4 -13 16 -21 21
-21 13z"/>
<path d="M34309 68203 c-13 -16 -12 -17 4 -4 16 13 21 21 13 21 -2 0 -10 -8
-17 -17z"/>
<path d="M34390 68216 c0 -2 8 -10 18 -17 15 -13 16 -12 3 4 -13 16 -21 21
-21 13z"/>
<path d="M34550 68216 c0 -2 8 -10 18 -17 15 -13 16 -12 3 4 -13 16 -21 21
-21 13z"/>
<path d="M34949 68203 c-13 -16 -12 -17 4 -4 16 13 21 21 13 21 -2 0 -10 -8
-17 -17z"/>
<path d="M35030 68216 c0 -2 8 -10 18 -17 15 -13 16 -12 3 4 -13 16 -21 21
-21 13z"/>
<path d="M35190 68216 c0 -2 8 -10 18 -17 15 -13 16 -12 3 4 -13 16 -21 21
-21 13z"/>
<path d="M35589 68203 c-13 -16 -12 -17 4 -4 16 13 21 21 13 21 -2 0 -10 -8
-17 -17z"/>
<path d="M35670 68216 c0 -2 8 -10 18 -17 15 -13 16 -12 3 4 -13 16 -21 21
-21 13z"/>
<path d="M36709 68203 c-13 -16 -12 -17 4 -4 16 13 21 21 13 21 -2 0 -10 -8
-17 -17z"/>
<path d="M36790 68216 c0 -2 8 -10 18 -17 15 -13 16 -12 3 4 -13 16 -21 21
-21 13z"/>
<path d="M37189 68203 c-13 -16 -12 -17 4 -4 16 13 21 21 13 21 -2 0 -10 -8
-17 -17z"/>
<path d="M37270 68216 c0 -2 8 -10 18 -17 15 -13 16 -12 3 4 -13 16 -21 21
-21 13z"/>
<path d="M37669 68203 c-13 -16 -12 -17 4 -4 16 13 21 21 13 21 -2 0 -10 -8
-17 -17z"/>
<path d="M38629 68203 c-13 -16 -12 -17 4 -4 16 13 21 21 13 21 -2 0 -10 -8
-17 -17z"/>
<path d="M38710 68216 c0 -2 8 -10 18 -17 15 -13 16 -12 3 4 -13 16 -21 21
-21 13z"/>
<path d="M39109 68203 c-13 -16 -12 -17 4 -4 16 13 21 21 13 21 -2 0 -10 -8
-17 -17z"/>
<path d="M39190 68216 c0 -2 8 -10 18 -17 15 -13 16 -12 3 4 -13 16 -21 21
-21 13z"/>
<path d="M39589 68203 c-13 -16 -12 -17 4 -4 16 13 21 21 13 21 -2 0 -10 -8
-17 -17z"/>
<path d="M40549 68203 c-13 -16 -12 -17 4 -4 16 13 21 21 13 21 -2 0 -10 -8
-17 -17z"/>
<path d="M40630 68216 c0 -2 8 -10 18 -17 15 -13 16 -12 3 4 -13 16 -21 21
-21 13z"/>
<path d="M41029 68203 c-13 -16 -12 -17 4 -4 16 13 21 21 13 21 -2 0 -10 -8
-17 -17z"/>
<path d="M41110 68216 c0 -2 8 -10 18 -17 15 -13 16 -12 3 4 -13 16 -21 21
-21 13z"/>
<path d="M41509 68203 c-13 -16 -12 -17 4 -4 16 13 21 21 13 21 -2 0 -10 -8
-17 -17z"/>
<path d="M42469 68203 c-13 -16 -12 -17 4 -4 16 13 21 21 13 21 -2 0 -10 -8
-17 -17z"/>
<path d="M42550 68216 c0 -2 8 -10 18 -17 15 -13 16 -12 3 4 -13 16 -21 21
-21 13z"/>
<path d="M42949 68203 c-13 -16 -12 -17 4 -4 16 13 21 21 13 21 -2 0 -10 -8
-17 -17z"/>
<path d="M43030 68216 c0 -2 8 -10 18 -17 15 -13 16 -12 3 4 -13 16 -21 21
-21 13z"/>
<path d="M43429 68203 c-13 -16 -12 -17 4 -4 16 13 21 21 13 21 -2 0 -10 -8
-17 -17z"/>
<path d="M44389 68203 c-13 -16 -12 -17 4 -4 16 13 21 21 13 21 -2 0 -10 -8
-17 -17z"/>
<path d="M44470 68216 c0 -2 8 -10 18 -17 15 -13 16 -12 3 4 -13 16 -21 21
-21 13z"/>
<path d="M44869 68203 c-13 -16 -12 -17 4 -4 16 13 21 21 13 21 -2 0 -10 -8
-17 -17z"/>
<path d="M44950 68216 c0 -2 8 -10 18 -17 15 -13 16 -12 3 4 -13 16 -21 21
-21 13z"/>
<path d="M45349 68203 c-13 -16 -12 -17 4 -4 16 13 21 21 13 21 -2 0 -10 -8
-17 -17z"/>
<path d="M46070 68216 c0 -2 8 -10 18 -17 15 -13 16 -12 3 4 -13 16 -21 21
-21 13z"/>
<path d="M46469 68203 c-13 -16 -12 -17 4 -4 16 13 21 21 13 21 -2 0 -10 -8
-17 -17z"/>
<path d="M46550 68216 c0 -2 8 -10 18 -17 15 -13 16 -12 3 4 -13 16 -21 21
-21 13z"/>
<path d="M46710 68216 c0 -2 8 -10 18 -17 15 -13 16 -12 3 4 -13 16 -21 21
-21 13z"/>
<path d="M47109 68203 c-13 -16 -12 -17 4 -4 16 13 21 21 13 21 -2 0 -10 -8
-17 -17z"/>
<path d="M47190 68216 c0 -2 8 -10 18 -17 15 -13 16 -12 3 4 -13 16 -21 21
-21 13z"/>
<path d="M47350 68216 c0 -2 8 -10 18 -17 15 -13 16 -12 3 4 -13 16 -21 21
-21 13z"/>
<path d="M47749 68203 c-13 -16 -12 -17 4 -4 16 13 21 21 13 21 -2 0 -10 -8
-17 -17z"/>
<path d="M47830 68216 c0 -2 8 -10 18 -17 15 -13 16 -12 3 4 -13 16 -21 21
-21 13z"/>
<path d="M47990 68216 c0 -2 8 -10 18 -17 15 -13 16 -12 3 4 -13 16 -21 21
-21 13z"/>
<path d="M48389 68203 c-13 -16 -12 -17 4 -4 16 13 21 21 13 21 -2 0 -10 -8
-17 -17z"/>
<path d="M48470 68216 c0 -2 8 -10 18 -17 15 -13 16 -12 3 4 -13 16 -21 21
-21 13z"/>
<path d="M48630 68216 c0 -2 8 -10 18 -17 15 -13 16 -12 3 4 -13 16 -21 21
-21 13z"/>
<path d="M49029 68203 c-13 -16 -12 -17 4 -4 16 13 21 21 13 21 -2 0 -10 -8
-17 -17z"/>
<path d="M49110 68216 c0 -2 8 -10 18 -17 15 -13 16 -12 3 4 -13 16 -21 21
-21 13z"/>
<path d="M49270 68216 c0 -2 8 -10 18 -17 15 -13 16 -12 3 4 -13 16 -21 21
-21 13z"/>
<path d="M49669 68203 c-13 -16 -12 -17 4 -4 16 13 21 21 13 21 -2 0 -10 -8
-17 -17z"/>
<path d="M49750 68216 c0 -2 8 -10 18 -17 15 -13 16 -12 3 4 -13 16 -21 21
-21 13z"/>
<path d="M49910 68216 c0 -2 8 -10 18 -17 15 -13 16 -12 3 4 -13 16 -21 21
-21 13z"/>
<path d="M50309 68203 c-13 -16 -12 -17 4 -4 16 13 21 21 13 21 -2 0 -10 -8
-17 -17z"/>
<path d="M50390 68216 c0 -2 8 -10 18 -17 15 -13 16 -12 3 4 -13 16 -21 21
-21 13z"/>
<path d="M50550 68216 c0 -2 8 -10 18 -17 15 -13 16 -12 3 4 -13 16 -21 21
-21 13z"/>
<path d="M50949 68203 c-13 -16 -12 -17 4 -4 16 13 21 21 13 21 -2 0 -10 -8
-17 -17z"/>
<path d="M51030 68216 c0 -2 8 -10 18 -17 15 -13 16 -12 3 4 -13 16 -21 21
-21 13z"/>
<path d="M52069 68203 c-13 -16 -12 -17 4 -4 16 13 21 21 13 21 -2 0 -10 -8
-17 -17z"/>
<path d="M52150 68216 c0 -2 8 -10 18 -17 15 -13 16 -12 3 4 -13 16 -21 21
-21 13z"/>
<path d="M52549 68203 c-13 -16 -12 -17 4 -4 16 13 21 21 13 21 -2 0 -10 -8
-17 -17z"/>
<path d="M52630 68216 c0 -2 8 -10 18 -17 15 -13 16 -12 3 4 -13 16 -21 21
-21 13z"/>
<path d="M53029 68203 c-13 -16 -12 -17 4 -4 16 13 21 21 13 21 -2 0 -10 -8
-17 -17z"/>
<path d="M53989 68203 c-13 -16 -12 -17 4 -4 16 13 21 21 13 21 -2 0 -10 -8
-17 -17z"/>
<path d="M54070 68216 c0 -2 8 -10 18 -17 15 -13 16 -12 3 4 -13 16 -21 21
-21 13z"/>
<path d="M54469 68203 c-13 -16 -12 -17 4 -4 16 13 21 21 13 21 -2 0 -10 -8
-17 -17z"/>
<path d="M54550 68216 c0 -2 8 -10 18 -17 15 -13 16 -12 3 4 -13 16 -21 21
-21 13z"/>
<path d="M54949 68203 c-13 -16 -12 -17 4 -4 16 13 21 21 13 21 -2 0 -10 -8
-17 -17z"/>
<path d="M55909 68203 c-13 -16 -12 -17 4 -4 16 13 21 21 13 21 -2 0 -10 -8
-17 -17z"/>
<path d="M55990 68216 c0 -2 8 -10 18 -17 15 -13 16 -12 3 4 -13 16 -21 21
-21 13z"/>
<path d="M56389 68203 c-13 -16 -12 -17 4 -4 16 13 21 21 13 21 -2 0 -10 -8
-17 -17z"/>
<path d="M56470 68216 c0 -2 8 -10 18 -17 15 -13 16 -12 3 4 -13 16 -21 21
-21 13z"/>
<path d="M56869 68203 c-13 -16 -12 -17 4 -4 16 13 21 21 13 21 -2 0 -10 -8
-17 -17z"/>
<path d="M57829 68203 c-13 -16 -12 -17 4 -4 16 13 21 21 13 21 -2 0 -10 -8
-17 -17z"/>
<path d="M57910 68216 c0 -2 8 -10 18 -17 15 -13 16 -12 3 4 -13 16 -21 21
-21 13z"/>
<path d="M58309 68203 c-13 -16 -12 -17 4 -4 16 13 21 21 13 21 -2 0 -10 -8
-17 -17z"/>
<path d="M58390 68216 c0 -2 8 -10 18 -17 15 -13 16 -12 3 4 -13 16 -21 21
-21 13z"/>
<path d="M7479 68203 c-1 -5 -2 -15 -3 -23 -1 -9 -14 -15 -36 -16 -19 -2 -54
-5 -78 -7 -23 -3 -45 -1 -48 4 -3 5 -11 9 -17 9 -7 0 -6 -4 3 -10 11 -7 2 -10
-32 -11 -27 -1 -54 -2 -60 -3 -7 -1 -19 3 -27 8 -11 8 -13 8 -7 -1 5 -9 1 -13
-11 -14 -10 -1 -29 -2 -43 -4 -14 -2 -53 -5 -88 -8 -35 -3 -66 -8 -69 -11 -3
-3 -13 3 -22 12 -9 10 -12 12 -7 5 11 -17 9 -19 -31 -26 -23 -5 -33 -3 -33 6
0 8 -3 8 -9 -2 -5 -8 -25 -15 -44 -16 -19 -1 -38 -5 -43 -8 -5 -3 -22 -7 -39
-8 -21 -3 -29 0 -27 9 1 8 -2 11 -8 7 -6 -3 -7 -11 -4 -17 5 -7 0 -9 -14 -6
-12 4 -20 2 -16 -3 8 -13 -10 -11 -25 4 -11 9 -12 9 -7 0 4 -8 -2 -14 -19 -18
-14 -3 -37 -8 -52 -11 -46 -10 -77 -15 -95 -17 -10 -1 -18 -4 -18 -8 0 -3 -19
-10 -42 -14 -24 -4 -47 -9 -53 -11 -5 -1 -19 -5 -30 -8 -11 -3 -36 -10 -55
-16 -50 -16 -82 -23 -107 -24 -11 -1 -19 -4 -16 -8 2 -5 -4 -9 -14 -10 -10 0
-22 -2 -28 -3 -5 -2 -14 -4 -20 -5 -5 -1 -13 -2 -17 -1 -5 0 -8 -4 -8 -11 0
-6 -3 -8 -7 -5 -3 4 -11 3 -17 -2 -16 -12 -77 -31 -72 -22 3 4 -1 8 -8 8 -8 0
-12 -7 -9 -14 4 -9 0 -13 -8 -12 -8 2 -25 -3 -39 -11 -14 -7 -25 -12 -25 -11
0 1 -12 -2 -27 -8 -15 -6 -35 -8 -43 -4 -10 3 -15 1 -13 -8 2 -7 -1 -14 -7
-15 -5 0 -26 -7 -45 -15 -19 -7 -38 -12 -42 -11 -5 1 -8 -2 -8 -8 0 -5 -5 -10
-11 -10 -5 0 -36 -12 -67 -26 -31 -14 -67 -27 -79 -28 -11 0 -19 -4 -17 -7 6
-10 -26 -20 -38 -12 -6 3 -8 1 -5 -4 6 -9 -70 -49 -82 -43 -2 1 -7 -2 -10 -7
-12 -17 -62 -44 -71 -38 -6 3 -10 1 -10 -5 0 -7 -7 -9 -16 -6 -8 3 -13 2 -10
-3 7 -11 -43 -33 -56 -25 -7 4 -8 2 -4 -4 8 -13 -67 -55 -79 -44 -5 4 -5 2 -2
-4 8 -13 -60 -47 -75 -38 -6 4 -8 2 -5 -4 4 -6 -15 -24 -43 -41 -27 -17 -50
-29 -50 -26 0 3 -9 -4 -20 -15 -13 -13 -29 -19 -45 -16 -14 3 -27 1 -30 -4 -3
-5 5 -7 17 -5 23 4 23 4 -2 -15 -13 -10 -27 -17 -31 -14 -4 2 -10 -3 -13 -12
-4 -9 -9 -14 -13 -11 -3 4 -14 -3 -24 -15 -11 -11 -19 -18 -19 -14 0 4 -6 2
-12 -4 -7 -6 -31 -24 -53 -40 -22 -16 -46 -35 -54 -42 -27 -23 -111 -78 -118
-78 -5 0 -14 -9 -21 -20 -7 -11 -17 -20 -23 -20 -5 0 -7 5 -3 12 4 7 3 8 -5 4
-6 -4 -9 -12 -5 -17 3 -6 -3 -13 -15 -16 -11 -3 -19 -9 -16 -13 3 -4 -11 -18
-30 -31 -19 -13 -35 -27 -35 -31 0 -5 -9 -8 -21 -8 -11 0 -18 -4 -15 -8 3 -5
-6 -19 -19 -30 -14 -12 -25 -20 -25 -18 0 3 -12 -8 -28 -22 -80 -77 -144 -132
-154 -132 -6 0 -9 -3 -6 -6 7 -6 -27 -44 -40 -44 -4 -1 -20 -18 -37 -39 -16
-21 -32 -38 -35 -37 -3 1 -15 -8 -27 -21 -12 -13 -20 -23 -17 -23 3 0 -1 -6
-8 -14 -7 -8 -16 -12 -19 -10 -4 2 -9 -6 -12 -17 -4 -14 -11 -20 -20 -16 -9 3
-14 -1 -13 -11 0 -9 -5 -16 -11 -15 -7 2 -12 -3 -10 -10 1 -6 -4 -11 -10 -10
-7 2 -13 -3 -13 -11 0 -7 -8 -20 -17 -27 -14 -12 -16 -12 -8 0 5 10 4 12 -4 7
-6 -4 -9 -12 -5 -17 9 -16 -36 -58 -55 -52 -10 3 -12 2 -4 -4 11 -8 -4 -30
-108 -152 -16 -19 -29 -38 -29 -43 0 -4 -7 -8 -16 -8 -8 0 -13 -4 -10 -8 8
-13 -34 -53 -47 -46 -9 5 -8 3 0 -6 10 -11 10 -17 -2 -29 -47 -52 -53 -60 -47
-65 3 -3 1 -6 -4 -6 -5 0 -20 -18 -34 -40 -15 -24 -30 -38 -38 -35 -7 3 -10 0
-7 -5 6 -10 -32 -85 -58 -112 -6 -7 -22 -31 -34 -53 -12 -22 -26 -40 -32 -40
-5 0 -13 -4 -18 -9 -5 -5 -2 -6 6 -1 9 5 12 3 9 -6 -3 -8 -13 -13 -22 -13 -13
2 -14 -1 -5 -12 8 -10 8 -14 0 -14 -6 0 -10 -3 -9 -7 2 -8 -21 -54 -31 -63 -3
-3 -16 -25 -29 -50 -12 -25 -38 -72 -57 -105 -20 -33 -40 -72 -46 -87 -6 -16
-15 -26 -19 -23 -5 3 -12 0 -16 -6 -5 -8 -3 -9 6 -4 10 6 12 4 7 -9 -4 -10 -7
-20 -7 -22 0 -3 -4 -2 -10 1 -6 4 -7 -1 -3 -11 4 -12 3 -15 -5 -10 -8 5 -10 2
-5 -9 3 -10 0 -21 -7 -25 -8 -5 -15 -19 -17 -32 -2 -13 -8 -24 -13 -26 -6 -2
-10 -12 -10 -23 0 -10 -8 -27 -17 -36 -10 -10 -18 -27 -18 -38 -1 -11 -6 -19
-12 -18 -6 1 -9 -6 -5 -19 3 -14 1 -19 -6 -14 -8 4 -10 2 -6 -7 3 -8 1 -18 -5
-22 -6 -3 -11 -15 -11 -26 0 -10 -4 -19 -8 -19 -4 0 -9 -10 -9 -22 -1 -13 -7
-24 -13 -26 -5 -2 -7 -8 -4 -13 3 -6 0 -17 -7 -25 -7 -9 -14 -26 -16 -37 -5
-36 -25 -77 -34 -71 -5 3 -7 -1 -4 -8 7 -18 -30 -120 -40 -110 -4 4 -5 1 -1
-5 7 -13 -13 -93 -23 -93 -4 0 -7 -8 -8 -17 -5 -43 -16 -82 -23 -78 -4 2 -6
-7 -4 -20 1 -14 -2 -25 -7 -25 -6 0 -8 -4 -4 -10 3 -5 -1 -25 -9 -45 -8 -19
-13 -35 -11 -35 2 0 -1 -15 -6 -32 -6 -18 -12 -46 -15 -63 -3 -16 -8 -37 -11
-45 -7 -19 -8 -21 -23 -95 -6 -33 -14 -71 -16 -85 -3 -14 -6 -33 -7 -42 -1
-10 -4 -18 -7 -18 -3 0 -5 -10 -6 -22 -1 -13 -4 -39 -7 -58 -8 -45 -15 -94
-22 -145 -3 -22 -7 -49 -9 -60 -2 -11 -7 -55 -11 -97 -3 -43 -8 -92 -10 -109
-3 -17 -7 -81 -11 -142 -4 -62 -8 -11211 -8 -24777 l-2 -24665 -88 -235 c-49
-129 -119 -320 -157 -425 -38 -104 -76 -206 -84 -225 -8 -19 -51 -138 -95
-265 -45 -126 -92 -259 -105 -295 -13 -36 -43 -119 -65 -185 -23 -66 -45 -129
-50 -140 -25 -59 -371 -1084 -518 -1535 -93 -285 -315 -990 -347 -1100 -7 -25
-39 -128 -70 -230 -31 -102 -65 -214 -75 -250 -26 -92 -63 -218 -100 -340 -30
-101 -35 -119 -44 -157 -3 -10 -18 -63 -34 -118 -27 -88 -41 -138 -72 -250 -4
-16 -47 -172 -95 -345 -47 -173 -88 -322 -90 -330 -11 -50 -48 -192 -60 -230
-8 -25 -17 -56 -19 -70 -3 -14 -35 -142 -71 -285 -37 -143 -69 -269 -71 -280
-2 -11 -15 -65 -29 -120 -13 -55 -38 -161 -55 -235 -17 -74 -33 -142 -35 -150
-19 -76 -68 -316 -73 -355 -9 -66 -8 -244 1 -320 20 -170 107 -383 215 -530
236 -322 618 -466 978 -371 283 76 492 258 639 556 142 289 231 459 385 740
26 47 50 92 53 100 4 8 18 33 30 55 13 22 40 72 61 110 22 39 79 142 129 230
49 88 101 180 115 205 13 25 42 74 62 110 21 36 51 90 68 120 48 88 171 304
182 320 6 8 13 21 17 29 6 14 213 380 232 411 10 16 318 552 362 629 14 25 52
91 83 146 31 55 62 109 68 120 6 11 38 67 71 124 l60 104 -9 67 -9 66 200
-201 c285 -287 504 -467 826 -684 92 -61 170 -111 174 -111 4 0 19 -8 33 -19
93 -65 452 -247 663 -334 142 -59 421 -158 529 -188 25 -7 50 -14 55 -15 6 -2
62 -17 125 -33 110 -29 127 -32 195 -46 178 -35 226 -44 262 -49 22 -3 52 -7
65 -10 12 -3 46 -8 73 -10 28 -3 68 -7 90 -10 66 -10 134 -16 255 -24 150 -9
51384 -9 51515 1 148 11 317 30 395 43 14 2 43 7 65 10 95 14 391 77 515 110
74 19 142 37 150 39 8 2 80 26 160 53 243 83 396 146 640 265 123 59 194 98
421 229 12 7 28 17 33 21 6 4 62 41 124 82 62 41 156 107 210 146 83 62 128
97 266 209 10 8 30 26 45 40 16 14 48 42 72 63 70 61 297 287 374 372 39 42
81 89 94 104 13 14 30 36 38 48 8 13 19 20 24 17 5 -3 8 -1 7 4 -2 5 22 40 52
78 125 157 247 330 356 506 29 46 62 101 74 123 13 22 31 54 41 70 10 17 42
76 71 133 29 56 58 112 64 123 7 11 20 40 30 64 10 24 22 41 27 38 6 -3 7 -2
4 4 -3 5 19 68 50 138 30 71 56 134 58 139 1 6 7 22 12 36 6 14 22 59 37 100
15 41 29 82 32 90 3 8 5 16 5 17 -1 2 6 20 13 40 14 38 52 161 61 198 3 11 16
63 31 115 14 52 27 104 30 115 2 11 7 34 11 50 4 17 7 32 8 35 0 3 5 23 9 45
5 22 10 49 11 60 5 34 16 89 20 105 2 8 7 40 10 70 3 30 8 62 10 70 4 15 13
85 20 150 13 139 17 170 22 210 3 25 7 9360 9 20745 1 11385 3 20705 3 20711
1 5 20 18 44 28 59 25 491 220 617 279 155 72 707 347 845 420 337 178 365
194 790 437 282 161 1029 639 1201 769 12 9 30 22 40 29 225 151 863 639 1022
780 13 11 41 35 64 54 46 37 67 55 252 217 364 317 846 789 1181 1155 50 54
97 106 106 115 8 9 62 70 120 136 57 66 106 122 109 125 16 15 253 306 351
430 237 301 481 644 686 965 113 177 233 375 233 385 0 6 5 10 10 10 6 0 10 5
10 10 0 6 35 72 79 148 147 258 295 548 454 892 14 30 46 105 71 165 26 61 51
119 56 130 16 35 107 267 135 345 15 41 35 95 45 120 76 192 280 880 313 1060
3 14 13 57 22 95 16 71 32 145 40 200 3 17 10 50 15 75 9 42 21 114 35 200 3
19 7 46 10 60 2 14 7 52 11 85 3 33 8 62 9 65 2 3 6 41 10 85 4 44 9 89 11 99
16 87 24 440 11 531 -25 188 -107 383 -224 536 -155 205 -292 326 -454 402
-150 71 -208 82 -424 81 -152 -1 -228 -4 -470 -19 -117 -8 -236 -15 -325 -20
-47 -3 -110 -7 -140 -10 -30 -3 -98 -7 -150 -10 -52 -3 -120 -7 -150 -10 -30
-2 -95 -7 -145 -10 -119 -7 -228 -15 -290 -20 -27 -3 -84 -7 -125 -10 -107 -7
-229 -16 -270 -20 -19 -2 -80 -6 -135 -10 -55 -3 -111 -7 -125 -10 -14 -2 -65
-6 -115 -10 -49 -4 -108 -8 -130 -10 -22 -2 -76 -7 -120 -10 -44 -3 -98 -8
-120 -10 -37 -3 -67 -6 -240 -21 -33 -2 -80 -7 -105 -9 -25 -3 -76 -7 -115
-10 -38 -3 -88 -7 -110 -10 -22 -2 -71 -7 -110 -10 -38 -4 -92 -8 -120 -11
-56 -6 -95 -9 -205 -19 -41 -3 -86 -8 -100 -10 -14 -2 -59 -6 -100 -10 -41 -3
-86 -7 -100 -9 -14 -3 -59 -7 -100 -10 -41 -4 -85 -8 -97 -10 -12 -3 -54 -7
-95 -11 -40 -3 -89 -8 -108 -10 -58 -6 -132 -14 -187 -20 -29 -3 -74 -7 -100
-10 -27 -3 -115 -12 -198 -20 -82 -8 -168 -17 -190 -20 -22 -2 -71 -7 -110
-10 -38 -4 -81 -8 -95 -10 -14 -2 -61 -7 -105 -10 -44 -4 -91 -8 -105 -10 -14
-2 -56 -7 -95 -10 -38 -3 -81 -8 -95 -10 -14 -2 -61 -7 -105 -10 -44 -4 -91
-8 -105 -10 -14 -2 -56 -7 -95 -10 -38 -3 -81 -8 -95 -10 -14 -2 -54 -7 -90
-10 -36 -3 -76 -8 -90 -10 -14 -2 -59 -7 -100 -11 -41 -3 -84 -8 -94 -10 -10
-2 -51 -6 -90 -9 -39 -3 -82 -8 -96 -10 -14 -2 -49 -6 -77 -9 -104 -11 -158
-17 -188 -21 -77 -9 -139 -15 -187 -20 -29 -3 -64 -8 -78 -10 -14 -2 -52 -7
-85 -10 -33 -3 -78 -8 -100 -11 -22 -2 -62 -6 -90 -9 -27 -3 -61 -8 -75 -10
-14 -2 -52 -7 -85 -10 -100 -10 -100 -10 -100 -35 0 -27 -20 -35 -118 -45 -34
-4 -65 -9 -68 -10 -3 -2 -11 12 -18 31 -7 18 -16 34 -21 34 -14 0 -21 32 -9
47 7 7 9 16 5 20 -3 3 -6 1 -6 -5 0 -7 -5 -12 -11 -12 -6 0 -9 6 -6 14 3 8 2
16 -3 18 -14 5 -20 56 -7 62 7 2 3 5 -7 5 -11 1 -16 4 -13 8 4 3 1 13 -6 21
-10 13 -9 14 3 7 12 -7 13 -6 3 6 -7 9 -14 24 -16 35 -2 10 -7 27 -12 36 -4
10 -8 29 -9 42 0 13 -4 22 -8 19 -7 -4 -12 21 -11 54 1 7 -3 10 -8 7 -8 -5
-14 36 -9 61 1 5 -2 7 -6 2 -8 -8 -36 58 -35 86 0 9 -4 17 -10 17 -5 0 -9 11
-9 25 0 14 -4 25 -10 25 -5 0 -10 6 -10 14 0 7 -9 33 -19 57 -11 24 -21 53
-23 64 -1 11 -6 22 -9 25 -4 3 -16 25 -28 49 -16 35 -18 47 -9 53 13 7 11 9
-14 12 -14 1 -30 55 -21 69 3 6 2 7 -4 4 -12 -8 -46 61 -37 75 4 7 2 8 -4 4
-11 -6 -14 0 -11 20 0 4 -4 10 -10 13 -18 11 -92 162 -85 173 4 6 3 8 -3 5
-13 -8 -46 50 -37 66 4 6 4 9 -1 5 -10 -9 -46 46 -48 73 -1 10 -4 17 -8 16 -4
-1 -7 1 -8 6 0 4 -10 17 -21 29 -11 12 -20 28 -20 35 0 7 -4 13 -10 13 -5 0
-10 5 -10 11 0 6 -7 17 -15 25 -8 8 -11 22 -8 31 4 11 2 14 -5 9 -7 -4 -18 7
-28 26 -9 18 -23 37 -30 41 -8 4 -14 14 -14 21 0 7 -9 21 -20 31 -11 10 -20
22 -20 27 0 5 -6 16 -12 23 -33 37 -39 46 -33 55 3 6 -1 10 -9 10 -9 0 -18 11
-22 25 -4 14 -9 24 -12 21 -5 -6 -42 37 -42 50 0 4 10 -1 22 -12 14 -12 18
-13 10 -3 -6 9 -9 19 -6 22 4 4 -3 5 -14 2 -13 -2 -27 5 -39 22 -10 14 -28 38
-40 53 -13 15 -23 34 -23 41 0 7 -3 10 -6 6 -10 -9 -75 73 -67 85 3 6 1 8 -4
5 -6 -4 -18 2 -28 13 -15 17 -16 22 -4 37 11 15 11 16 -1 6 -17 -16 -30 -17
-30 -3 0 5 -13 23 -30 38 -16 16 -30 34 -30 40 0 6 -9 14 -20 17 -15 5 -19 12
-16 28 3 12 3 16 0 10 -3 -7 -10 -13 -15 -13 -6 0 -8 4 -5 9 3 5 -1 11 -9 15
-8 3 -15 12 -15 21 0 8 -4 14 -8 12 -5 -1 -43 32 -85 73 -60 58 -76 79 -73 97
3 12 1 25 -4 28 -5 3 -7 -4 -5 -15 2 -13 -1 -20 -11 -20 -13 0 -19 12 -15 33
1 5 -2 6 -7 3 -9 -5 -68 43 -155 127 -22 20 -43 37 -47 37 -4 0 -19 14 -34 32
-14 17 -26 28 -26 23 0 -6 -11 1 -24 15 -14 14 -56 48 -95 75 -39 28 -71 54
-71 58 0 5 5 5 12 1 7 -4 8 -3 4 4 -4 6 -13 9 -20 6 -7 -3 -20 2 -29 10 -9 9
-20 16 -26 16 -6 0 -16 9 -23 20 -7 11 -17 20 -22 20 -8 0 -206 129 -216 141
-3 3 -22 14 -42 24 -21 9 -38 21 -38 26 0 5 -7 9 -15 9 -11 0 -14 7 -11 25 3
13 1 27 -4 30 -5 3 -7 -3 -5 -15 6 -29 -9 -32 -36 -7 -13 12 -26 21 -29 21
-16 -4 -50 17 -44 28 4 6 3 8 -3 5 -10 -7 -84 29 -94 45 -3 5 -10 9 -15 9 -16
-1 -244 113 -244 122 0 4 4 6 9 3 5 -3 15 2 22 12 13 15 12 16 -3 3 -10 -7
-18 -10 -18 -6 0 4 -6 2 -14 -4 -10 -8 -20 -7 -42 3 -98 46 -113 54 -107 60 4
4 0 4 -10 0 -9 -3 -17 -1 -17 5 0 6 -6 8 -14 5 -8 -3 -17 -1 -21 5 -3 6 -15
11 -26 11 -10 0 -19 5 -19 10 0 6 -9 10 -19 10 -11 0 -27 3 -35 6 -14 5 -14 9
-4 23 11 14 11 14 -4 3 -9 -8 -27 -10 -42 -6 -33 8 -34 22 -1 19 13 -2 30 4
37 13 11 13 11 14 -2 7 -23 -14 -43 -15 -58 -3 -10 9 -12 8 -10 -3 4 -18 -6
-18 -70 4 -28 10 -50 22 -47 27 3 4 -5 6 -17 2 -13 -3 -19 -1 -15 5 5 7 0 9
-13 6 -11 -3 -20 -1 -20 4 0 5 -14 10 -32 11 -39 3 -44 8 -30 25 9 10 8 14 -3
14 -8 0 -12 -4 -9 -8 8 -14 -14 -19 -41 -9 -14 5 -40 12 -56 15 -17 3 -38 9
-47 14 -9 5 -46 16 -82 24 -43 9 -64 19 -62 27 2 10 0 11 -10 2 -12 -9 -108 5
-168 26 -17 5 -30 8 -80 16 -19 3 -54 8 -77 12 -24 4 -41 9 -39 13 2 3 -18 6
-45 5 -28 0 -52 3 -54 7 -3 4 -16 6 -30 4 -14 -1 -25 1 -25 5 0 5 -9 6 -20 3
-15 -4 -19 -2 -14 10 3 8 1 18 -4 21 -5 3 -9 -2 -8 -11 1 -14 -6 -17 -39 -14
-22 2 -43 8 -47 14 -5 8 -8 7 -8 -3 0 -13 -1 -13 -10 0 -9 13 -10 13 -10 0 0
-13 -1 -13 -10 0 -5 8 -10 11 -10 6 0 -5 -8 -2 -17 5 -12 10 -15 10 -9 1 6
-10 0 -11 -26 -7 -18 4 -51 6 -73 7 -22 0 -43 5 -47 12 -6 8 -8 8 -8 0 0 -6
-12 -10 -27 -8 -16 2 -60 4 -100 6 -43 1 -69 6 -66 11 4 6 1 7 -8 2 -18 -12
-149 -12 -149 -1 0 5 -8 2 -17 -5 -15 -12 -16 -12 -10 6 7 20 7 20 -8 1 -8
-11 -18 -17 -21 -13 -4 4 -1 14 7 24 9 11 4 9 -15 -5 -23 -17 -31 -20 -38 -10
-6 11 -8 11 -8 0 0 -9 -5 -10 -19 -2 -14 7 -22 7 -27 -1 -4 -8 -9 -7 -15 2 -5
8 -9 9 -9 4 0 -6 -9 -11 -20 -11 -11 0 -20 4 -20 9 0 4 -5 5 -11 1 -16 -10
-249 -10 -249 0 0 5 -8 2 -17 -5 -15 -12 -16 -12 -10 6 7 20 7 20 -8 1 -8 -11
-18 -17 -21 -13 -4 4 -1 14 7 24 9 11 4 9 -15 -5 -23 -17 -31 -20 -38 -10 -6
11 -8 11 -8 0 0 -9 -5 -10 -19 -2 -14 7 -22 7 -27 -1 -4 -8 -9 -7 -15 2 -5 8
-9 9 -9 4 0 -6 -9 -11 -20 -11 -11 0 -20 4 -20 9 0 4 -5 5 -11 1 -20 -12 -209
-10 -209 3 0 6 -4 14 -9 17 -5 3 -8 -2 -7 -10 1 -13 -9 -17 -44 -16 -33 0 -44
3 -42 13 1 8 -5 5 -13 -6 -13 -16 -17 -17 -24 -6 -7 11 -9 11 -14 0 -4 -10 -6
-9 -6 3 -1 9 -5 19 -10 22 -5 3 -8 -2 -7 -10 1 -13 -9 -17 -44 -16 -33 0 -44
3 -42 13 1 8 -5 5 -13 -6 -13 -16 -17 -17 -24 -6 -7 11 -9 11 -14 0 -4 -10 -6
-9 -6 3 -1 9 -5 19 -10 22 -5 3 -8 -2 -7 -10 1 -13 -9 -17 -44 -16 -33 0 -44
3 -42 13 1 8 -5 5 -13 -6 -13 -16 -17 -17 -24 -6 -7 11 -9 11 -14 0 -4 -10 -6
-9 -6 3 -1 9 -5 19 -10 22 -5 3 -8 -2 -7 -10 1 -13 -9 -17 -44 -16 -33 0 -44
3 -42 13 1 8 -5 5 -13 -6 -14 -17 -17 -18 -25 -5 -7 11 -10 11 -10 2 0 -9 -5
-10 -19 -2 -14 7 -22 7 -27 -1 -4 -8 -9 -7 -15 2 -5 8 -9 9 -9 4 0 -6 -9 -11
-20 -11 -11 0 -20 4 -20 9 0 4 -5 5 -11 1 -16 -10 -249 -10 -249 0 0 5 -8 2
-17 -5 -15 -12 -16 -12 -10 6 7 20 7 20 -8 1 -8 -11 -18 -17 -21 -13 -4 4 -1
14 7 24 9 11 4 9 -15 -5 -23 -17 -31 -20 -38 -10 -6 11 -8 11 -8 0 0 -9 -5
-10 -19 -2 -14 7 -22 7 -27 -1 -4 -8 -9 -7 -15 2 -5 8 -9 9 -9 4 0 -6 -9 -11
-20 -11 -11 0 -20 4 -20 9 0 4 -5 5 -11 1 -16 -10 -249 -10 -249 0 0 5 -8 2
-17 -5 -15 -12 -16 -12 -10 6 7 20 7 20 -8 1 -8 -11 -18 -17 -21 -13 -4 4 -1
14 7 24 9 11 4 9 -15 -5 -23 -17 -31 -20 -38 -10 -6 11 -8 11 -8 0 0 -9 -5
-10 -19 -2 -14 7 -22 7 -27 -1 -4 -8 -9 -7 -15 2 -5 8 -9 9 -9 4 0 -6 -9 -11
-20 -11 -11 0 -20 4 -20 9 0 4 -5 5 -11 1 -20 -12 -209 -10 -209 3 0 6 -4 14
-9 17 -5 3 -8 -2 -7 -10 1 -13 -9 -17 -44 -16 -33 0 -44 3 -42 13 1 8 -5 5
-13 -6 -13 -16 -17 -17 -24 -6 -7 11 -9 11 -14 0 -4 -10 -6 -9 -6 3 -1 9 -5
19 -10 22 -5 3 -8 -2 -7 -10 1 -13 -9 -17 -44 -16 -33 0 -44 3 -42 13 1 8 -5
5 -13 -6 -13 -16 -17 -17 -24 -6 -7 11 -9 11 -14 0 -4 -10 -6 -9 -6 3 -1 9 -5
19 -10 22 -5 3 -8 -2 -7 -10 1 -13 -9 -17 -44 -16 -33 0 -44 3 -42 13 1 8 -5
5 -13 -6 -13 -16 -17 -17 -24 -6 -7 11 -9 11 -14 0 -4 -10 -6 -9 -6 3 -1 9 -5
19 -10 22 -5 3 -8 -2 -7 -10 1 -13 -9 -17 -44 -16 -33 0 -44 3 -42 13 1 8 -5
5 -13 -6 -14 -17 -17 -18 -25 -5 -7 11 -10 11 -10 2 0 -9 -5 -10 -19 -2 -14 7
-22 7 -27 -1 -4 -8 -9 -7 -15 2 -5 8 -9 9 -9 4 0 -6 -9 -11 -20 -11 -11 0 -20
4 -20 9 0 4 -5 5 -11 1 -16 -10 -249 -10 -249 0 0 5 -8 2 -17 -5 -15 -12 -16
-12 -10 6 7 20 7 20 -8 1 -8 -11 -18 -17 -21 -13 -4 4 -1 14 7 24 9 11 4 9
-15 -5 -23 -17 -31 -20 -38 -10 -6 11 -8 11 -8 0 0 -9 -5 -10 -19 -2 -14 7
-22 7 -27 -1 -4 -8 -9 -7 -15 2 -5 8 -9 9 -9 4 0 -6 -9 -11 -20 -11 -11 0 -20
4 -20 9 0 4 -5 5 -11 1 -16 -10 -249 -10 -249 0 0 5 -8 2 -17 -5 -15 -12 -16
-12 -10 6 7 20 7 20 -8 1 -8 -11 -18 -17 -21 -13 -4 4 -1 14 7 24 9 11 4 9
-15 -5 -23 -17 -31 -20 -38 -10 -6 11 -8 11 -8 0 0 -9 -5 -10 -19 -2 -14 7
-22 7 -27 -1 -4 -8 -9 -7 -15 2 -5 8 -9 9 -9 4 0 -6 -9 -11 -20 -11 -11 0 -20
4 -20 9 0 4 -5 5 -11 1 -20 -12 -209 -10 -209 3 0 6 -4 14 -9 17 -5 3 -8 -2
-7 -10 1 -13 -9 -17 -44 -16 -33 0 -44 3 -42 13 1 8 -5 5 -13 -6 -13 -16 -17
-17 -24 -6 -7 11 -9 11 -14 0 -4 -10 -6 -9 -6 3 -1 9 -5 19 -10 22 -5 3 -8 -2
-7 -10 1 -13 -9 -17 -44 -16 -33 0 -44 3 -42 13 1 8 -5 5 -13 -6 -13 -16 -17
-17 -24 -6 -7 11 -9 11 -14 0 -4 -10 -6 -9 -6 3 -1 9 -5 19 -10 22 -5 3 -8 -2
-7 -10 1 -13 -9 -17 -44 -16 -33 0 -44 3 -42 13 1 8 -5 5 -13 -6 -13 -16 -17
-17 -24 -6 -7 11 -9 11 -14 0 -4 -10 -6 -9 -6 3 -1 9 -5 19 -10 22 -5 3 -8 -2
-7 -10 1 -13 -9 -17 -44 -16 -33 0 -44 3 -42 13 1 8 -5 5 -13 -6 -14 -17 -17
-18 -25 -5 -7 11 -10 11 -10 2 0 -9 -5 -10 -19 -2 -14 7 -22 7 -27 -1 -4 -8
-9 -7 -15 2 -5 8 -9 9 -9 4 0 -6 -9 -11 -20 -11 -11 0 -20 4 -20 9 0 4 -5 5
-11 1 -16 -10 -249 -10 -249 0 0 5 -8 2 -17 -5 -15 -12 -16 -12 -10 6 7 20 7
20 -8 1 -8 -11 -18 -17 -21 -13 -4 4 -1 14 7 24 9 11 4 9 -15 -5 -23 -17 -31
-20 -38 -10 -6 11 -8 11 -8 0 0 -9 -5 -10 -19 -2 -14 7 -22 7 -27 -1 -4 -8 -9
-7 -15 2 -5 8 -9 9 -9 4 0 -6 -9 -11 -20 -11 -11 0 -20 4 -20 9 0 4 -5 5 -11
1 -16 -10 -249 -10 -249 0 0 5 -8 2 -17 -5 -15 -12 -16 -12 -10 6 7 20 7 20
-8 1 -8 -11 -18 -17 -21 -13 -4 4 -1 14 7 24 9 11 4 9 -15 -5 -23 -17 -31 -20
-38 -10 -6 11 -8 11 -8 0 0 -9 -5 -10 -19 -2 -14 7 -22 7 -27 -1 -4 -8 -9 -7
-15 2 -5 8 -9 9 -9 4 0 -6 -9 -11 -20 -11 -11 0 -20 4 -20 9 0 4 -5 5 -11 1
-20 -12 -209 -10 -209 3 0 6 -4 14 -9 17 -5 3 -8 -2 -7 -10 1 -13 -9 -17 -44
-16 -33 0 -44 3 -42 13 1 8 -5 5 -13 -6 -13 -16 -17 -17 -24 -6 -7 11 -9 11
-14 0 -4 -10 -6 -9 -6 3 -1 9 -5 19 -10 22 -5 3 -8 -2 -7 -10 1 -13 -9 -17
-44 -16 -33 0 -44 3 -42 13 1 8 -5 5 -13 -6 -13 -16 -17 -17 -24 -6 -7 11 -9
11 -14 0 -4 -10 -6 -9 -6 3 -1 9 -5 19 -10 22 -5 3 -8 -2 -7 -10 1 -13 -9 -17
-44 -16 -33 0 -44 3 -42 13 1 8 -5 5 -13 -6 -13 -16 -17 -17 -24 -6 -7 11 -9
11 -14 0 -4 -10 -6 -9 -6 3 -1 9 -5 19 -10 22 -5 3 -8 -2 -7 -10 1 -13 -9 -17
-44 -16 -33 0 -44 3 -42 13 1 8 -5 5 -13 -6 -13 -17 -17 -18 -25 -5 -6 9 -4
20 3 30 10 13 10 13 -5 2 -9 -8 -15 -19 -12 -25 2 -7 -6 -12 -21 -12 -14 0
-25 4 -25 9 0 5 -8 2 -17 -5 -15 -12 -16 -12 -10 6 7 20 7 20 -8 1 -8 -11 -18
-17 -21 -13 -4 4 -1 14 7 24 9 11 4 9 -15 -5 -23 -17 -31 -20 -38 -10 -6 11
-8 11 -8 0 0 -9 -5 -10 -19 -2 -14 7 -22 7 -27 -1 -4 -8 -9 -7 -15 2 -5 8 -9
9 -9 4 0 -6 -9 -11 -20 -11 -11 0 -20 4 -20 9 0 4 -5 5 -11 1 -16 -10 -249
-10 -249 0 0 5 -8 2 -17 -5 -15 -12 -16 -12 -10 6 7 20 7 20 -8 1 -8 -11 -18
-17 -21 -13 -4 4 -1 14 7 24 9 11 4 10 -15 -5 -27 -21 -30 -21 -42 -5 -10 13
-12 13 -9 3 4 -11 -2 -15 -20 -15 -14 0 -25 4 -25 9 0 5 -8 2 -17 -5 -15 -12
-16 -12 -10 6 7 20 7 20 -8 1 -8 -11 -18 -17 -21 -13 -4 4 -1 14 7 24 9 11 4
9 -15 -5 -23 -17 -31 -20 -38 -10 -6 11 -8 11 -8 0 0 -9 -5 -10 -19 -2 -14 7
-22 7 -27 -1 -4 -8 -9 -7 -15 2 -5 8 -9 9 -9 4 0 -6 -9 -11 -20 -11 -11 0 -20
4 -20 9 0 4 -5 5 -11 1 -16 -10 -249 -10 -249 0 0 5 -8 2 -17 -5 -15 -12 -16
-12 -10 6 7 20 7 20 -8 1 -8 -11 -18 -17 -21 -13 -4 4 -1 14 7 24 9 11 4 10
-15 -5 -27 -21 -30 -21 -42 -5 -10 13 -12 13 -9 3 4 -11 -2 -15 -20 -15 -14 0
-25 4 -25 9 0 5 -8 2 -17 -5 -15 -12 -16 -12 -10 6 7 20 7 20 -8 1 -8 -11 -18
-17 -21 -13 -4 4 -1 14 7 24 9 11 4 9 -15 -5 -23 -17 -31 -20 -38 -10 -6 11
-8 11 -8 0 0 -9 -5 -10 -19 -2 -14 7 -22 7 -27 -1 -4 -8 -9 -7 -15 2 -5 8 -9
9 -9 4 0 -6 -9 -11 -20 -11 -11 0 -20 4 -20 9 0 4 -5 5 -11 1 -16 -10 -249
-10 -249 0 0 5 -8 2 -17 -5 -15 -12 -16 -12 -10 6 7 20 7 20 -8 1 -8 -11 -18
-17 -21 -13 -4 4 -1 14 7 24 9 11 4 10 -15 -5 -27 -21 -30 -21 -42 -5 -10 13
-12 13 -9 3 4 -11 -2 -15 -20 -15 -14 0 -25 4 -25 9 0 5 -8 2 -17 -5 -15 -12
-16 -12 -10 6 7 20 7 20 -8 1 -8 -11 -18 -17 -21 -13 -4 4 -1 14 7 24 9 11 4
9 -15 -5 -23 -17 -31 -20 -38 -10 -6 11 -8 11 -8 0 0 -9 -5 -10 -19 -2 -14 7
-22 7 -27 -1 -4 -8 -9 -7 -15 2 -5 8 -9 9 -9 4 0 -6 -9 -11 -20 -11 -11 0 -20
4 -20 9 0 4 -5 5 -11 1 -16 -10 -249 -10 -249 0 0 5 -8 2 -17 -5 -15 -12 -16
-12 -10 6 7 20 7 20 -8 1 -8 -11 -18 -17 -21 -13 -4 4 -1 14 7 24 9 11 4 10
-15 -5 -27 -21 -30 -21 -42 -5 -10 13 -12 13 -9 3 4 -11 -2 -15 -20 -15 -14 0
-25 4 -25 9 0 5 -8 2 -17 -5 -15 -12 -16 -12 -10 6 7 20 7 20 -8 1 -8 -11 -18
-17 -21 -13 -4 4 -1 14 7 24 9 11 4 9 -15 -5 -23 -17 -31 -20 -38 -10 -6 11
-8 11 -8 0 0 -9 -5 -10 -19 -2 -14 7 -22 7 -27 -1 -4 -8 -9 -7 -15 2 -5 8 -9
9 -9 4 0 -6 -9 -11 -20 -11 -11 0 -20 4 -20 9 0 4 -5 5 -11 1 -16 -10 -249
-10 -249 0 0 5 -8 2 -17 -5 -15 -12 -16 -12 -10 6 7 20 7 20 -8 1 -8 -11 -18
-17 -21 -13 -4 4 -1 14 7 24 9 11 4 10 -15 -5 -27 -21 -30 -21 -42 -5 -10 13
-12 13 -9 3 4 -11 -2 -15 -20 -15 -14 0 -25 4 -25 9 0 5 -8 2 -17 -5 -15 -12
-16 -12 -10 6 7 20 7 20 -8 1 -8 -11 -18 -17 -21 -13 -4 4 -1 14 7 24 9 11 4
9 -15 -5 -23 -17 -31 -20 -38 -10 -6 11 -8 11 -8 0 0 -9 -5 -10 -19 -2 -14 7
-22 7 -27 -1 -4 -8 -9 -7 -15 2 -5 8 -9 9 -9 4 0 -6 -9 -11 -20 -11 -11 0 -20
4 -20 9 0 4 -5 5 -11 1 -16 -10 -249 -10 -249 0 0 5 -8 2 -17 -5 -15 -12 -16
-12 -10 6 7 20 7 20 -8 1 -8 -11 -18 -17 -21 -13 -4 4 -1 14 7 24 9 11 4 10
-15 -5 -27 -21 -30 -21 -42 -5 -10 13 -12 13 -9 3 4 -11 -2 -15 -20 -15 -14 0
-25 4 -25 9 0 5 -8 2 -17 -5 -15 -12 -16 -12 -10 6 7 20 7 20 -8 1 -8 -11 -18
-17 -21 -13 -4 4 -1 14 7 24 9 11 4 9 -15 -5 -23 -17 -31 -20 -38 -10 -6 11
-8 11 -8 0 0 -9 -5 -10 -19 -2 -14 7 -22 7 -27 -1 -4 -8 -9 -7 -15 2 -5 8 -9
9 -9 4 0 -6 -9 -11 -20 -11 -11 0 -20 4 -20 9 0 4 -5 5 -11 1 -16 -10 -249
-10 -249 0 0 5 -8 2 -17 -5 -15 -12 -16 -12 -10 6 7 20 7 20 -8 1 -8 -11 -18
-17 -21 -13 -4 4 -1 14 7 24 9 11 4 10 -15 -5 -27 -21 -30 -21 -42 -5 -10 13
-12 13 -9 3 4 -11 -2 -15 -20 -15 -14 0 -25 4 -25 9 0 5 -8 2 -17 -5 -15 -12
-16 -12 -10 6 7 20 7 20 -8 1 -8 -11 -18 -17 -21 -13 -4 4 -1 14 7 24 9 11 4
9 -15 -5 -23 -17 -31 -20 -38 -10 -6 11 -8 11 -8 0 0 -9 -5 -10 -19 -2 -14 7
-22 7 -27 -1 -4 -8 -9 -7 -15 2 -5 8 -9 9 -9 4 0 -6 -9 -11 -20 -11 -11 0 -20
4 -20 9 0 4 -5 5 -11 1 -16 -10 -249 -10 -249 0 0 5 -8 2 -17 -5 -15 -12 -16
-12 -10 6 7 20 7 20 -8 1 -8 -11 -18 -17 -21 -13 -4 4 -1 14 7 24 9 11 4 9
-15 -5 -20 -16 -32 -19 -37 -11 -5 8 -8 7 -12 -2 -4 -10 -6 -9 -6 3 -1 9 -5
19 -10 22 -5 3 -8 -2 -7 -10 1 -13 -9 -17 -44 -16 -33 0 -44 3 -42 13 1 8 -5
5 -13 -6 -13 -16 -17 -17 -24 -6 -7 11 -9 11 -14 0 -4 -10 -6 -9 -6 3 -1 9 -5
19 -10 22 -5 3 -8 -2 -7 -10 1 -13 -9 -17 -44 -16 -33 0 -44 3 -42 13 1 8 -5
5 -13 -6 -13 -16 -17 -17 -24 -6 -7 11 -9 11 -14 0 -4 -10 -6 -9 -6 3 -1 9 -5
19 -10 22 -5 3 -8 -2 -7 -10 1 -13 -9 -17 -44 -16 -33 0 -44 3 -42 13 1 8 -5
5 -13 -6 -13 -16 -17 -17 -24 -6 -7 11 -9 11 -14 0 -4 -10 -6 -9 -6 3 -1 9 -5
19 -10 22 -5 3 -8 -2 -7 -10 1 -13 -9 -17 -44 -16 -33 0 -44 3 -42 13 1 8 -5
5 -13 -6 -14 -17 -17 -18 -25 -5 -7 11 -10 11 -10 2 0 -9 -5 -10 -19 -2 -14 7
-22 7 -27 -1 -4 -8 -9 -7 -15 2 -5 8 -9 9 -9 4 0 -6 -9 -11 -20 -11 -11 0 -20
4 -20 9 0 4 -5 5 -11 1 -16 -10 -249 -10 -249 0 0 5 -8 2 -17 -5 -15 -12 -16
-12 -10 6 7 20 7 20 -8 1 -8 -11 -18 -17 -21 -13 -4 4 -1 14 7 24 9 11 4 9
-15 -5 -23 -17 -31 -20 -38 -10 -6 11 -8 11 -8 0 0 -9 -5 -10 -19 -2 -14 7
-22 7 -27 -1 -4 -8 -9 -7 -15 2 -5 8 -9 9 -9 4 0 -6 -9 -11 -20 -11 -11 0 -20
4 -20 9 0 4 -5 5 -11 1 -16 -10 -249 -10 -249 0 0 5 -8 2 -17 -5 -15 -12 -16
-12 -10 6 7 20 7 20 -8 1 -8 -11 -18 -17 -21 -13 -4 4 -1 14 7 24 9 11 4 9
-15 -5 -23 -17 -31 -20 -38 -10 -6 11 -8 11 -8 0 0 -9 -5 -10 -19 -2 -14 7
-22 7 -27 -1 -4 -8 -9 -7 -15 2 -5 8 -9 9 -9 4 0 -6 -9 -11 -20 -11 -11 0 -20
4 -20 9 0 4 -5 5 -11 1 -20 -12 -209 -10 -209 3 0 6 -4 14 -9 17 -5 3 -8 -2
-7 -10 1 -13 -9 -17 -44 -16 -33 0 -44 3 -42 13 1 8 -5 5 -13 -6 -13 -16 -17
-17 -24 -6 -7 11 -9 11 -14 0 -4 -10 -6 -9 -6 3 -1 9 -5 19 -10 22 -5 3 -8 -2
-7 -10 1 -13 -9 -17 -44 -16 -33 0 -44 3 -42 13 1 8 -5 5 -13 -6 -13 -16 -17
-17 -24 -6 -7 11 -9 11 -14 0 -4 -10 -6 -9 -6 3 -1 9 -5 19 -10 22 -5 3 -8 -2
-7 -10 1 -13 -9 -17 -44 -16 -33 0 -44 3 -42 13 1 8 -5 5 -13 -6 -13 -16 -17
-17 -24 -6 -7 11 -9 11 -14 0 -4 -10 -6 -9 -6 3 -1 9 -5 19 -10 22 -5 3 -8 -2
-7 -10 1 -13 -9 -17 -44 -16 -33 0 -44 3 -42 13 1 8 -5 5 -13 -6 -14 -17 -17
-18 -25 -5 -7 11 -10 11 -10 2 0 -9 -5 -10 -19 -2 -14 7 -22 7 -27 -1 -4 -8
-9 -7 -15 2 -5 8 -9 9 -9 4 0 -6 -9 -11 -20 -11 -11 0 -20 4 -20 9 0 4 -5 5
-11 1 -16 -10 -249 -10 -249 0 0 5 -8 2 -17 -5 -15 -12 -16 -12 -10 6 7 20 7
20 -8 1 -8 -11 -18 -17 -21 -13 -4 4 -1 14 7 24 9 11 4 9 -15 -5 -23 -17 -31
-20 -38 -10 -6 11 -8 11 -8 0 0 -9 -5 -10 -19 -2 -14 7 -22 7 -27 -1 -4 -8 -9
-7 -15 2 -5 8 -9 9 -9 4 0 -6 -9 -11 -20 -11 -11 0 -20 4 -20 9 0 4 -5 5 -11
1 -16 -10 -249 -10 -249 0 0 5 -8 2 -17 -5 -15 -12 -16 -12 -10 6 7 20 7 20
-8 1 -8 -11 -18 -17 -21 -13 -4 4 -1 14 7 24 9 11 4 9 -15 -5 -23 -17 -31 -20
-38 -10 -6 11 -8 11 -8 0 0 -9 -5 -10 -19 -2 -14 7 -22 7 -27 -1 -4 -8 -9 -7
-15 2 -5 8 -9 9 -9 4 0 -6 -9 -11 -20 -11 -11 0 -20 4 -20 9 0 4 -5 5 -11 1
-20 -12 -209 -10 -209 3 0 6 -4 14 -9 17 -5 3 -8 -2 -7 -10 1 -13 -9 -17 -44
-16 -33 0 -44 3 -42 13 1 8 -5 5 -13 -6 -13 -16 -17 -17 -24 -6 -7 11 -9 11
-14 0 -4 -10 -6 -9 -6 3 -1 9 -5 19 -10 22 -5 3 -8 -2 -7 -10 1 -13 -9 -17
-44 -16 -33 0 -44 3 -42 13 1 8 -5 5 -13 -6 -13 -16 -17 -17 -24 -6 -7 11 -9
11 -14 0 -4 -10 -6 -9 -6 3 -1 9 -5 19 -10 22 -5 3 -8 -2 -7 -10 1 -13 -9 -17
-44 -16 -33 0 -44 3 -42 13 1 8 -5 5 -13 -6 -13 -16 -17 -17 -24 -6 -7 11 -9
11 -14 0 -4 -10 -6 -9 -6 3 -1 9 -5 19 -10 22 -5 3 -8 -2 -7 -10 1 -13 -9 -17
-44 -16 -33 0 -44 3 -42 13 1 8 -5 5 -13 -6 -14 -17 -17 -18 -25 -5 -7 11 -10
11 -10 2 0 -9 -5 -10 -19 -2 -14 7 -22 7 -27 -1 -4 -8 -9 -7 -15 2 -5 8 -9 9
-9 4 0 -6 -9 -11 -20 -11 -11 0 -20 4 -20 9 0 4 -5 5 -11 1 -16 -10 -249 -10
-249 0 0 5 -8 2 -17 -5 -15 -12 -16 -12 -10 6 7 20 7 20 -8 1 -8 -11 -18 -17
-21 -13 -4 4 -1 14 7 24 9 11 4 9 -15 -5 -23 -17 -31 -20 -38 -10 -6 11 -8 11
-8 0 0 -9 -5 -10 -19 -2 -14 7 -22 7 -27 -1 -4 -8 -9 -7 -15 2 -5 8 -9 9 -9 4
0 -6 -9 -11 -20 -11 -11 0 -20 4 -20 9 0 4 -5 5 -11 1 -16 -10 -249 -10 -249
0 0 5 -8 2 -17 -5 -15 -12 -16 -12 -10 6 7 20 7 20 -8 1 -8 -11 -18 -17 -21
-13 -4 4 -1 14 7 24 9 11 4 9 -15 -5 -23 -17 -31 -20 -38 -10 -6 11 -8 11 -8
0 0 -9 -5 -10 -19 -2 -14 7 -22 7 -27 -1 -4 -8 -9 -7 -15 2 -5 8 -9 9 -9 4 0
-6 -9 -11 -20 -11 -11 0 -20 4 -20 9 0 4 -5 5 -11 1 -20 -12 -209 -10 -209 3
0 6 -4 14 -9 17 -5 3 -8 -2 -7 -10 1 -13 -9 -17 -44 -16 -33 0 -44 3 -42 13 1
8 -5 5 -13 -6 -13 -16 -17 -17 -24 -6 -7 11 -9 11 -14 0 -4 -10 -6 -9 -6 3 -1
9 -5 19 -10 22 -5 3 -8 -2 -7 -10 1 -13 -9 -17 -44 -16 -33 0 -44 3 -42 13 1
8 -5 5 -13 -6 -13 -16 -17 -17 -24 -6 -7 11 -9 11 -14 0 -4 -10 -6 -9 -6 3 -1
9 -5 19 -10 22 -5 3 -8 -2 -7 -10 1 -13 -9 -17 -44 -16 -33 0 -44 3 -42 13 1
8 -5 5 -13 -6 -13 -16 -17 -17 -24 -6 -7 11 -9 11 -14 0 -4 -10 -6 -9 -6 3 -1
9 -5 19 -10 22 -5 3 -8 -2 -7 -10 1 -13 -9 -17 -44 -16 -33 0 -44 3 -42 13 1
8 -5 5 -13 -6 -14 -17 -17 -18 -25 -5 -7 11 -10 11 -10 2 0 -9 -5 -10 -19 -2
-14 7 -22 7 -27 -1 -4 -8 -9 -7 -15 2 -5 8 -9 9 -9 4 0 -6 -9 -11 -20 -11 -11
0 -20 4 -20 9 0 4 -5 5 -11 1 -16 -10 -249 -10 -249 0 0 5 -8 2 -17 -5 -15
-12 -16 -12 -10 6 7 20 7 20 -8 1 -8 -11 -18 -17 -21 -13 -4 4 -1 14 7 24 9
11 4 9 -15 -5 -23 -17 -31 -20 -38 -10 -6 11 -8 11 -8 0 0 -9 -5 -10 -19 -2
-14 7 -22 7 -27 -1 -4 -8 -9 -7 -15 2 -5 8 -9 9 -9 4 0 -6 -9 -11 -20 -11 -11
0 -20 4 -20 9 0 4 -5 5 -11 1 -16 -10 -249 -10 -249 0 0 5 -8 2 -17 -5 -15
-12 -16 -12 -10 6 7 20 7 20 -8 1 -8 -11 -18 -17 -21 -13 -4 4 -1 14 7 24 9
11 4 9 -15 -5 -23 -17 -31 -20 -38 -10 -6 11 -8 11 -8 0 0 -9 -5 -10 -19 -2
-14 7 -22 7 -27 -1 -4 -8 -9 -7 -15 2 -5 8 -9 9 -9 4 0 -6 -9 -11 -20 -11 -11
0 -20 4 -20 9 0 4 -5 5 -11 1 -20 -12 -209 -10 -209 3 0 6 -4 14 -9 17 -5 3
-8 -2 -7 -10 1 -13 -9 -17 -44 -16 -33 0 -44 3 -42 13 1 8 -5 5 -13 -6 -13
-16 -17 -17 -24 -6 -7 11 -9 11 -14 0 -4 -10 -6 -9 -6 3 -1 9 -5 19 -10 22 -5
3 -8 -2 -7 -10 1 -13 -9 -17 -44 -16 -33 0 -44 3 -42 13 1 8 -5 5 -13 -6 -13
-16 -17 -17 -24 -6 -7 11 -9 11 -14 0 -4 -10 -6 -9 -6 3 -1 9 -5 19 -10 22 -5
3 -8 -2 -7 -10 1 -13 -9 -17 -44 -16 -33 0 -44 3 -42 13 1 8 -5 5 -13 -6 -13
-16 -17 -17 -24 -6 -7 11 -9 11 -14 0 -4 -10 -6 -9 -6 3 -1 9 -5 19 -10 22 -5
3 -8 -2 -7 -10 1 -13 -9 -17 -44 -16 -33 0 -44 3 -42 13 1 8 -5 5 -13 -6 -14
-17 -17 -18 -25 -5 -7 11 -10 11 -10 2 0 -9 -5 -10 -19 -2 -14 7 -22 7 -27 -1
-4 -8 -9 -7 -15 2 -5 8 -9 9 -9 4 0 -6 -9 -11 -20 -11 -11 0 -20 4 -20 9 0 4
-5 5 -11 1 -16 -10 -249 -10 -249 0 0 5 -8 2 -17 -5 -15 -12 -16 -12 -10 6 7
20 7 20 -8 1 -8 -11 -18 -17 -21 -13 -4 4 -1 14 7 24 9 11 4 9 -15 -5 -23 -17
-31 -20 -38 -10 -6 11 -8 11 -8 0 0 -9 -5 -10 -19 -2 -14 7 -22 7 -27 -1 -4
-8 -9 -7 -15 2 -5 8 -9 9 -9 4 0 -6 -9 -11 -20 -11 -11 0 -20 4 -20 9 0 4 -5
5 -11 1 -16 -10 -249 -10 -249 0 0 5 -8 2 -17 -5 -15 -12 -16 -12 -10 6 7 20
7 20 -8 1 -8 -11 -18 -17 -21 -13 -4 4 -1 14 7 24 9 11 4 9 -15 -5 -23 -17
-31 -20 -38 -10 -6 11 -8 11 -8 0 0 -9 -5 -10 -19 -2 -14 7 -22 7 -27 -1 -4
-8 -9 -7 -15 2 -5 8 -9 9 -9 4 0 -6 -9 -11 -20 -11 -11 0 -20 4 -20 9 0 4 -5
5 -11 1 -20 -12 -209 -10 -209 3 0 6 -4 14 -9 17 -5 3 -8 -2 -7 -10 1 -13 -9
-17 -44 -16 -33 0 -44 3 -42 13 1 8 -5 5 -13 -6 -13 -16 -17 -17 -24 -6 -7 11
-9 11 -14 0 -4 -10 -6 -9 -6 3 -1 9 -5 19 -10 22 -5 3 -8 -2 -7 -10 1 -13 -9
-17 -44 -16 -33 0 -44 3 -42 13 1 8 -5 5 -13 -6 -13 -16 -17 -17 -24 -6 -7 11
-9 11 -14 0 -4 -10 -6 -9 -6 3 -1 9 -5 19 -10 22 -5 3 -8 -2 -7 -10 1 -13 -9
-17 -44 -16 -33 0 -44 3 -42 13 1 8 -5 5 -13 -6 -13 -16 -17 -17 -24 -6 -7 11
-9 11 -14 0 -4 -10 -6 -9 -6 3 -1 9 -5 19 -10 22 -5 3 -8 -2 -7 -10 1 -13 -9
-17 -44 -16 -33 0 -44 3 -42 13 1 8 -5 5 -13 -6 -13 -17 -17 -18 -25 -5 -6 9
-4 20 3 30 10 13 10 13 -5 2 -9 -8 -15 -19 -12 -25 2 -7 -6 -12 -21 -12 -14 0
-25 4 -25 9 0 5 -8 2 -17 -5 -15 -12 -16 -12 -10 6 7 20 7 20 -8 1 -8 -11 -18
-17 -21 -13 -4 4 -1 14 7 24 9 11 4 9 -15 -5 -23 -17 -31 -20 -38 -10 -6 11
-8 11 -8 0 0 -9 -5 -10 -19 -2 -14 7 -22 7 -27 -1 -4 -8 -9 -7 -15 2 -5 8 -9
9 -9 4 0 -6 -9 -11 -20 -11 -11 0 -20 4 -20 9 0 4 -5 5 -11 1 -16 -10 -249
-10 -249 0 0 5 -8 2 -17 -5 -15 -12 -16 -12 -10 6 7 20 7 20 -8 1 -8 -11 -18
-17 -21 -13 -4 4 -1 14 7 24 9 11 4 10 -15 -5 -27 -21 -30 -21 -42 -5 -10 13
-12 13 -9 3 4 -11 -2 -15 -20 -15 -14 0 -25 4 -25 9 0 5 -8 2 -17 -5 -15 -12
-16 -12 -10 6 7 20 7 20 -8 1 -8 -11 -18 -17 -21 -13 -4 4 -1 14 7 24 9 11 4
9 -15 -5 -23 -17 -31 -20 -38 -10 -6 11 -8 11 -8 0 0 -9 -5 -10 -19 -2 -14 7
-22 7 -27 -1 -4 -8 -9 -7 -15 2 -5 8 -9 9 -9 4 0 -6 -9 -11 -20 -11 -11 0 -20
4 -20 9 0 4 -5 5 -11 1 -16 -10 -249 -10 -249 0 0 5 -8 2 -17 -5 -15 -12 -16
-12 -10 6 7 20 7 20 -8 1 -8 -11 -18 -17 -21 -13 -4 4 -1 14 7 24 9 11 4 10
-15 -5 -27 -21 -30 -21 -42 -5 -10 13 -12 13 -9 3 4 -11 -2 -15 -20 -15 -14 0
-25 4 -25 9 0 5 -8 2 -17 -5 -15 -12 -16 -12 -10 6 7 20 7 20 -8 1 -8 -11 -18
-17 -21 -13 -4 4 -1 14 7 24 9 11 4 9 -15 -5 -23 -17 -31 -20 -38 -10 -6 11
-8 11 -8 0 0 -9 -5 -10 -19 -2 -14 7 -22 7 -27 -1 -4 -8 -9 -7 -15 2 -5 8 -9
9 -9 4 0 -6 -9 -11 -20 -11 -11 0 -20 4 -20 9 0 4 -5 5 -11 1 -16 -10 -249
-10 -249 0 0 5 -8 2 -17 -5 -15 -12 -16 -12 -10 6 7 20 7 20 -8 1 -8 -11 -18
-17 -21 -13 -4 4 -1 14 7 24 9 11 4 10 -15 -5 -27 -21 -30 -21 -42 -5 -10 13
-12 13 -9 3 4 -11 -2 -15 -20 -15 -14 0 -25 4 -25 9 0 5 -8 2 -17 -5 -15 -12
-16 -12 -10 6 7 20 7 20 -8 1 -8 -11 -18 -17 -21 -13 -4 4 -1 14 7 24 9 11 4
9 -15 -5 -23 -17 -31 -20 -38 -10 -6 11 -8 11 -8 0 0 -9 -5 -10 -19 -2 -14 7
-22 7 -27 -1 -4 -8 -9 -7 -15 2 -5 8 -9 9 -9 4 0 -6 -9 -11 -20 -11 -11 0 -20
4 -20 9 0 4 -5 5 -11 1 -16 -10 -249 -10 -249 0 0 5 -8 2 -17 -5 -15 -12 -16
-12 -10 6 7 20 7 20 -8 1 -8 -11 -18 -17 -21 -13 -4 4 -1 14 7 24 9 11 4 10
-15 -5 -27 -21 -30 -21 -42 -5 -10 13 -12 13 -9 3 4 -11 -2 -15 -20 -15 -14 0
-25 4 -25 9 0 5 -8 2 -17 -5 -15 -12 -16 -12 -10 6 7 20 7 20 -8 1 -8 -11 -18
-17 -21 -13 -4 4 -1 14 7 24 9 11 4 9 -15 -5 -23 -17 -31 -20 -38 -10 -6 11
-8 11 -8 0 0 -9 -5 -10 -19 -2 -14 7 -22 7 -27 -1 -4 -8 -9 -7 -15 2 -5 8 -9
9 -9 4 0 -6 -9 -11 -20 -11 -11 0 -20 4 -20 9 0 4 -5 5 -11 1 -16 -10 -249
-10 -249 0 0 5 -8 2 -17 -5 -15 -12 -16 -12 -10 6 7 20 7 20 -8 1 -8 -11 -18
-17 -21 -13 -4 4 -1 14 7 24 9 11 4 10 -15 -5 -27 -21 -30 -21 -42 -5 -10 13
-12 13 -9 3 4 -11 -2 -15 -20 -15 -14 0 -25 4 -25 9 0 5 -8 2 -17 -5 -15 -12
-16 -12 -10 6 7 20 7 20 -8 1 -8 -11 -18 -17 -21 -13 -4 4 -1 14 7 24 9 11 4
9 -15 -5 -23 -17 -31 -20 -38 -10 -6 11 -8 11 -8 0 0 -9 -5 -10 -19 -2 -14 7
-22 7 -27 -1 -4 -8 -9 -7 -15 2 -5 8 -9 9 -9 4 0 -6 -9 -11 -20 -11 -11 0 -20
4 -20 9 0 4 -5 5 -11 1 -16 -10 -249 -10 -249 0 0 5 -8 2 -17 -5 -15 -12 -16
-12 -10 6 7 20 7 20 -8 1 -8 -11 -18 -17 -21 -13 -4 4 -1 14 7 24 9 11 4 10
-15 -5 -27 -21 -30 -21 -42 -5 -10 13 -12 13 -9 3 4 -11 -2 -15 -20 -15 -14 0
-25 4 -25 9 0 5 -8 2 -17 -5 -15 -12 -16 -12 -10 6 7 20 7 20 -8 1 -8 -11 -18
-17 -21 -13 -4 4 -1 14 7 24 9 11 4 9 -15 -5 -23 -17 -31 -20 -38 -10 -6 11
-8 11 -8 0 0 -9 -5 -10 -19 -2 -14 7 -22 7 -27 -1 -4 -8 -9 -7 -15 2 -5 8 -9
9 -9 4 0 -6 -9 -11 -20 -11 -11 0 -20 4 -20 9 0 4 -5 5 -11 1 -16 -10 -249
-10 -249 0 0 5 -8 2 -17 -5 -15 -12 -16 -12 -10 6 7 20 7 20 -8 1 -8 -11 -18
-17 -21 -13 -4 4 -1 14 7 24 9 11 4 10 -15 -5 -27 -21 -30 -21 -42 -5 -10 13
-12 13 -9 3 4 -11 -2 -15 -20 -15 -14 0 -25 4 -25 9 0 5 -8 2 -17 -5 -15 -12
-16 -12 -10 6 7 20 7 20 -8 1 -8 -11 -18 -17 -21 -13 -4 4 -1 14 7 24 9 11 4
9 -15 -5 -23 -17 -31 -20 -38 -10 -6 11 -8 11 -8 0 0 -9 -5 -10 -19 -2 -14 7
-22 7 -27 -1 -4 -8 -9 -7 -15 2 -5 8 -9 9 -9 4 0 -6 -9 -11 -20 -11 -11 0 -20
4 -20 9 0 4 -5 5 -11 1 -16 -10 -249 -10 -249 0 0 5 -8 2 -17 -5 -15 -12 -16
-12 -10 6 7 20 7 20 -8 1 -8 -11 -18 -17 -21 -13 -4 4 -1 14 7 24 9 11 4 9
-15 -5 -20 -16 -32 -19 -37 -11 -5 8 -8 7 -12 -2 -4 -10 -6 -9 -6 3 -1 9 -5
19 -10 22 -5 3 -8 -2 -7 -10 1 -13 -9 -17 -44 -16 -33 0 -44 3 -42 13 1 8 -5
5 -13 -6 -13 -16 -17 -17 -24 -6 -7 11 -9 11 -14 0 -4 -10 -6 -9 -6 3 -1 9 -5
19 -10 22 -5 3 -8 -2 -7 -10 1 -13 -9 -17 -44 -16 -33 0 -44 3 -42 13 1 8 -5
5 -13 -6 -13 -16 -17 -17 -24 -6 -7 11 -9 11 -14 0 -4 -10 -6 -9 -6 3 -1 9 -5
19 -10 22 -5 3 -8 -2 -7 -10 1 -13 -9 -17 -44 -16 -33 0 -44 3 -42 13 1 8 -5
5 -13 -6 -13 -16 -17 -17 -24 -6 -7 11 -9 11 -14 0 -4 -10 -6 -9 -6 3 -1 9 -5
19 -10 22 -5 3 -8 -2 -7 -10 1 -13 -9 -17 -44 -16 -33 0 -44 3 -42 13 1 8 -5
5 -13 -6 -14 -17 -17 -18 -25 -5 -7 11 -10 11 -10 2 0 -9 -5 -10 -19 -2 -14 7
-22 7 -27 -1 -4 -8 -9 -7 -15 2 -5 8 -9 9 -9 4 0 -6 -9 -11 -20 -11 -11 0 -20
4 -20 9 0 4 -5 5 -11 1 -16 -10 -249 -10 -249 0 0 5 -8 2 -17 -5 -15 -12 -16
-12 -10 6 7 20 7 20 -8 1 -8 -11 -18 -17 -21 -13 -4 4 -1 14 7 24 9 11 4 9
-15 -5 -23 -17 -31 -20 -38 -10 -6 11 -8 11 -8 0 0 -9 -5 -10 -19 -2 -14 7
-22 7 -27 -1 -4 -8 -9 -7 -15 2 -5 8 -9 9 -9 4 0 -6 -9 -11 -20 -11 -11 0 -20
4 -20 9 0 4 -5 5 -11 1 -16 -10 -249 -10 -249 0 0 5 -8 2 -17 -5 -15 -12 -16
-12 -10 6 7 20 7 20 -8 1 -8 -11 -18 -17 -21 -13 -4 4 -1 14 7 24 9 11 4 9
-15 -5 -23 -17 -31 -20 -38 -10 -6 11 -8 11 -8 0 0 -9 -5 -10 -19 -2 -14 7
-22 7 -27 -1 -4 -8 -9 -7 -15 2 -5 8 -9 9 -9 4 0 -6 -9 -11 -20 -11 -11 0 -20
4 -20 9 0 4 -5 5 -11 1 -20 -12 -209 -10 -209 3 0 6 -4 14 -9 17 -5 3 -8 -2
-7 -10 1 -13 -9 -17 -44 -16 -33 0 -44 3 -42 13 1 8 -5 5 -13 -6 -13 -16 -17
-17 -24 -6 -7 11 -9 11 -14 0 -4 -10 -6 -9 -6 3 -1 9 -5 19 -10 22 -5 3 -8 -2
-7 -10 1 -13 -9 -17 -44 -16 -33 0 -44 3 -42 13 1 8 -5 5 -13 -6 -13 -16 -17
-17 -24 -6 -7 11 -9 11 -14 0 -4 -10 -6 -9 -6 3 -1 9 -5 19 -10 22 -5 3 -8 -2
-7 -10 1 -13 -9 -17 -44 -16 -33 0 -44 3 -42 13 1 8 -5 5 -13 -6 -13 -16 -17
-17 -24 -6 -7 11 -9 11 -14 0 -4 -10 -6 -9 -6 3 -1 9 -5 19 -10 22 -5 3 -8 -2
-7 -10 1 -13 -9 -17 -44 -16 -33 0 -44 3 -42 13 1 8 -5 5 -13 -6 -14 -17 -17
-18 -25 -5 -7 11 -10 11 -10 2 0 -9 -5 -10 -19 -2 -14 7 -22 7 -27 -1 -4 -8
-9 -7 -15 2 -5 8 -9 9 -9 4 0 -6 -9 -11 -20 -11 -11 0 -20 4 -20 9 0 4 -5 5
-11 1 -16 -10 -249 -10 -249 0 0 5 -8 2 -17 -5 -15 -12 -16 -12 -10 6 7 20 7
20 -8 1 -8 -11 -18 -17 -21 -13 -4 4 -1 14 7 24 9 11 4 9 -15 -5 -23 -17 -31
-20 -38 -10 -6 11 -8 11 -8 0 0 -9 -5 -10 -19 -2 -14 7 -22 7 -27 -1 -4 -8 -9
-7 -15 2 -5 8 -9 9 -9 4 0 -6 -9 -11 -20 -11 -11 0 -20 4 -20 9 0 4 -5 5 -11
1 -16 -10 -249 -10 -249 0 0 5 -8 2 -17 -5 -15 -12 -16 -12 -10 6 7 20 7 20
-8 1 -8 -11 -18 -17 -21 -13 -4 4 -1 14 7 24 9 11 4 9 -15 -5 -23 -17 -31 -20
-38 -10 -6 11 -8 11 -8 0 0 -9 -5 -10 -19 -2 -14 7 -22 7 -27 -1 -4 -8 -9 -7
-15 2 -5 8 -9 9 -9 4 0 -6 -9 -11 -20 -11 -11 0 -20 4 -20 9 0 4 -5 5 -11 1
-20 -12 -209 -10 -209 3 0 6 -4 14 -9 17 -5 3 -8 -2 -7 -10 1 -13 -9 -17 -44
-16 -33 0 -44 3 -42 13 1 8 -5 5 -13 -6 -13 -16 -17 -17 -24 -6 -7 11 -9 11
-14 0 -4 -10 -6 -9 -6 3 -1 9 -5 19 -10 22 -5 3 -8 -2 -7 -10 1 -13 -9 -17
-44 -16 -33 0 -44 3 -42 13 1 8 -5 5 -13 -6 -13 -16 -17 -17 -24 -6 -7 11 -9
11 -14 0 -4 -10 -6 -9 -6 3 -1 9 -5 19 -10 22 -5 3 -8 -2 -7 -10 1 -13 -9 -17
-44 -16 -33 0 -44 3 -42 13 1 8 -5 5 -13 -6 -13 -16 -17 -17 -24 -6 -7 11 -9
11 -14 0 -4 -10 -6 -9 -6 3 -1 9 -5 19 -10 22 -5 3 -8 -2 -7 -10 1 -13 -9 -17
-44 -16 -33 0 -44 3 -42 13 1 8 -5 5 -13 -6 -14 -17 -17 -18 -25 -5 -7 11 -10
11 -10 2 0 -9 -5 -10 -19 -2 -14 7 -22 7 -27 -1 -4 -8 -9 -7 -15 2 -5 8 -9 9
-9 4 0 -6 -9 -11 -20 -11 -11 0 -20 4 -20 9 0 4 -5 5 -11 1 -16 -10 -249 -10
-249 0 0 5 -8 2 -17 -5 -15 -12 -16 -12 -10 6 7 20 7 20 -8 1 -8 -11 -18 -17
-21 -13 -4 4 -1 14 7 24 9 11 4 9 -15 -5 -23 -17 -31 -20 -38 -10 -6 11 -8 11
-8 0 0 -9 -5 -10 -19 -2 -14 7 -22 7 -27 -1 -4 -8 -9 -7 -15 2 -5 8 -9 9 -9 4
0 -6 -9 -11 -20 -11 -11 0 -20 4 -20 9 0 4 -5 5 -11 1 -16 -10 -249 -10 -249
0 0 5 -8 2 -17 -5 -15 -12 -16 -12 -10 6 7 20 7 20 -8 1 -8 -11 -18 -17 -21
-13 -4 4 -1 14 7 24 9 11 4 9 -15 -5 -23 -17 -31 -20 -38 -10 -6 11 -8 11 -8
0 0 -9 -5 -10 -19 -2 -14 7 -22 7 -27 -1 -4 -8 -9 -7 -15 2 -5 8 -9 9 -9 4 0
-6 -9 -11 -20 -11 -11 0 -20 4 -20 9 0 4 -5 5 -11 1 -20 -12 -209 -10 -209 3
0 6 -4 14 -9 17 -5 3 -8 -2 -7 -10 1 -13 -9 -17 -44 -16 -33 0 -44 3 -42 13 1
8 -5 5 -13 -6 -13 -16 -17 -17 -24 -6 -7 11 -9 11 -14 0 -4 -10 -6 -9 -6 3 -1
9 -5 19 -10 22 -5 3 -8 -2 -7 -10 1 -13 -9 -17 -44 -16 -33 0 -44 3 -42 13 1
8 -5 5 -13 -6 -13 -16 -17 -17 -24 -6 -7 11 -9 11 -14 0 -4 -10 -6 -9 -6 3 -1
9 -5 19 -10 22 -5 3 -8 -2 -7 -10 1 -13 -9 -17 -44 -16 -33 0 -44 3 -42 13 1
8 -5 5 -13 -6 -13 -16 -17 -17 -24 -6 -7 11 -9 11 -14 0 -4 -10 -6 -9 -6 3 -1
9 -5 19 -10 22 -5 3 -8 -2 -7 -10 1 -13 -9 -17 -44 -16 -33 0 -44 3 -42 13 1
8 -5 5 -13 -6 -14 -17 -17 -18 -25 -5 -7 11 -10 11 -10 2 0 -9 -5 -10 -19 -2
-14 7 -22 7 -27 -1 -4 -8 -9 -7 -15 2 -5 8 -9 9 -9 4 0 -6 -9 -11 -20 -11 -11
0 -20 4 -20 9 0 4 -5 5 -11 1 -16 -10 -249 -10 -249 0 0 5 -8 2 -17 -5 -15
-12 -16 -12 -10 6 7 20 7 20 -8 1 -8 -11 -18 -17 -21 -13 -4 4 -1 14 7 24 9
11 4 9 -15 -5 -23 -17 -31 -20 -38 -10 -6 11 -8 11 -8 0 0 -9 -5 -10 -19 -2
-14 7 -22 7 -27 -1 -4 -8 -9 -7 -15 2 -5 8 -9 9 -9 4 0 -6 -9 -11 -20 -11 -11
0 -20 4 -20 9 0 4 -5 5 -11 1 -16 -10 -249 -10 -249 0 0 5 -8 2 -17 -5 -15
-12 -16 -12 -10 6 7 20 7 20 -8 1 -8 -11 -18 -17 -21 -13 -4 4 -1 14 7 24 9
11 4 9 -15 -5 -23 -17 -31 -20 -38 -10 -6 11 -8 11 -8 0 0 -9 -5 -10 -19 -2
-14 7 -22 7 -27 -1 -4 -8 -9 -7 -15 2 -5 8 -9 9 -9 4 0 -6 -9 -11 -20 -11 -11
0 -20 4 -20 9 0 4 -5 5 -11 1 -20 -12 -209 -10 -209 3 0 6 -4 14 -9 17 -5 3
-8 -2 -7 -10 1 -13 -9 -17 -44 -16 -33 0 -44 3 -42 13 1 8 -5 5 -13 -6 -13
-16 -17 -17 -24 -6 -7 11 -9 11 -14 0 -4 -10 -6 -9 -6 3 -1 9 -5 19 -10 22 -5
3 -8 -2 -7 -10 1 -13 -9 -17 -44 -16 -33 0 -44 3 -42 13 1 8 -5 5 -13 -6 -13
-16 -17 -17 -24 -6 -7 11 -9 11 -14 0 -4 -10 -6 -9 -6 3 -1 9 -5 19 -10 22 -5
3 -8 -2 -7 -10 1 -13 -9 -17 -44 -16 -33 0 -44 3 -42 13 1 8 -5 5 -13 -6 -13
-16 -17 -17 -24 -6 -7 11 -9 11 -14 0 -4 -10 -6 -9 -6 3 -1 9 -5 19 -10 22 -5
3 -8 -2 -7 -10 1 -13 -9 -17 -44 -16 -33 0 -44 3 -42 13 1 8 -5 5 -13 -6 -14
-17 -17 -18 -25 -5 -7 11 -10 11 -10 2 0 -9 -5 -10 -19 -2 -14 7 -22 7 -27 -1
-4 -8 -9 -7 -15 2 -5 8 -9 9 -9 4 0 -6 -9 -11 -20 -11 -11 0 -20 4 -20 9 0 4
-5 5 -11 1 -16 -10 -249 -10 -249 0 0 5 -8 2 -17 -5 -15 -12 -16 -12 -10 6 7
20 7 20 -8 1 -8 -11 -18 -17 -21 -13 -4 4 -1 14 7 24 9 11 4 9 -15 -5 -23 -17
-31 -20 -38 -10 -6 11 -8 11 -8 0 0 -9 -5 -10 -19 -2 -14 7 -22 7 -27 -1 -4
-8 -9 -7 -15 2 -5 8 -9 9 -9 4 0 -6 -9 -11 -20 -11 -11 0 -20 4 -20 9 0 4 -5
5 -11 1 -16 -10 -249 -10 -249 0 0 5 -8 2 -17 -5 -15 -12 -16 -12 -10 6 7 20
7 20 -8 1 -8 -11 -18 -17 -21 -13 -4 4 -1 14 7 24 9 11 4 9 -15 -5 -23 -17
-31 -20 -38 -10 -6 11 -8 11 -8 0 0 -9 -5 -10 -19 -2 -14 7 -22 7 -27 -1 -4
-8 -9 -7 -15 2 -5 8 -9 9 -9 4 0 -6 -9 -11 -20 -11 -11 0 -20 4 -20 9 0 4 -5
5 -11 1 -20 -12 -209 -10 -209 3 0 6 -4 14 -9 17 -5 3 -8 -2 -7 -10 1 -13 -9
-17 -44 -16 -33 0 -44 3 -42 13 1 8 -5 5 -13 -6 -13 -16 -17 -17 -24 -6 -7 11
-9 11 -14 0 -4 -10 -6 -9 -6 3 -1 9 -5 19 -10 22 -5 3 -8 -2 -7 -10 1 -13 -9
-17 -44 -16 -33 0 -44 3 -42 13 1 8 -5 5 -13 -6 -13 -16 -17 -17 -24 -6 -7 11
-9 11 -14 0 -4 -10 -6 -9 -6 3 -1 9 -5 19 -10 22 -5 3 -8 -2 -7 -10 1 -13 -9
-17 -44 -16 -33 0 -44 3 -42 13 1 8 -5 5 -13 -6 -13 -16 -17 -17 -24 -6 -7 11
-9 11 -14 0 -4 -10 -6 -9 -6 3 -1 9 -5 19 -10 22 -5 3 -8 -2 -7 -10 1 -13 -9
-17 -44 -16 -33 0 -44 3 -42 13 1 8 -5 5 -13 -6 -13 -17 -17 -18 -25 -5 -6 9
-4 20 3 30 10 13 10 13 -5 2 -9 -8 -15 -19 -12 -25 2 -7 -6 -12 -21 -12 -14 0
-25 4 -25 9 0 5 -8 2 -17 -5 -15 -12 -16 -12 -10 6 7 20 7 20 -8 1 -8 -11 -18
-17 -21 -13 -4 4 -1 14 7 24 9 11 4 9 -15 -5 -23 -17 -31 -20 -38 -10 -6 11
-8 11 -8 0 0 -9 -5 -10 -19 -2 -14 7 -22 7 -27 -1 -4 -8 -9 -7 -15 2 -5 8 -9
9 -9 4 0 -6 -9 -11 -20 -11 -11 0 -20 4 -20 9 0 4 -5 5 -11 1 -16 -10 -249
-10 -249 0 0 5 -8 2 -17 -5 -15 -12 -16 -12 -10 6 7 20 7 20 -8 1 -8 -11 -18
-17 -21 -13 -4 4 -1 14 7 24 9 11 4 10 -15 -5 -27 -21 -30 -21 -42 -5 -10 13
-12 13 -9 3 4 -11 -2 -15 -20 -15 -14 0 -25 4 -25 9 0 5 -8 2 -17 -5 -15 -12
-16 -12 -10 6 7 20 7 20 -8 1 -8 -11 -18 -17 -21 -13 -4 4 -1 14 7 24 9 11 4
9 -15 -5 -23 -17 -31 -20 -38 -10 -6 11 -8 11 -8 0 0 -9 -5 -10 -19 -2 -14 7
-22 7 -27 -1 -4 -8 -9 -7 -15 2 -5 8 -9 9 -9 4 0 -6 -9 -11 -20 -11 -11 0 -20
4 -20 9 0 4 -5 5 -11 1 -16 -10 -249 -10 -249 0 0 5 -8 2 -17 -5 -15 -12 -16
-12 -10 6 7 20 7 20 -8 1 -8 -11 -18 -17 -21 -13 -4 4 -1 14 7 24 9 11 4 10
-15 -5 -27 -21 -30 -21 -42 -5 -10 13 -12 13 -9 3 4 -11 -2 -15 -20 -15 -14 0
-25 4 -25 9 0 5 -8 2 -17 -5 -15 -12 -16 -12 -10 6 7 20 7 20 -8 1 -8 -11 -18
-17 -21 -13 -4 4 -1 14 7 24 9 11 4 9 -15 -5 -23 -17 -31 -20 -38 -10 -6 11
-8 11 -8 0 0 -9 -5 -10 -19 -2 -14 7 -22 7 -27 -1 -4 -8 -9 -7 -15 2 -5 8 -9
9 -9 4 0 -6 -9 -11 -20 -11 -11 0 -20 4 -20 9 0 4 -5 5 -11 1 -16 -10 -249
-10 -249 0 0 5 -8 2 -17 -5 -15 -12 -16 -12 -10 6 7 20 7 20 -8 1 -8 -11 -18
-17 -21 -13 -4 4 -1 14 7 24 9 11 4 10 -15 -5 -27 -21 -30 -21 -42 -5 -10 13
-12 13 -9 3 4 -11 -2 -15 -20 -15 -14 0 -25 4 -25 9 0 5 -8 2 -17 -5 -15 -12
-16 -12 -10 6 7 20 7 20 -8 1 -8 -11 -18 -17 -21 -13 -4 4 -1 14 7 24 9 11 4
9 -15 -5 -23 -17 -31 -20 -38 -10 -6 11 -8 11 -8 0 0 -9 -5 -10 -19 -2 -14 7
-22 7 -27 -1 -4 -8 -9 -7 -15 2 -5 8 -9 9 -9 4 0 -6 -9 -11 -20 -11 -11 0 -20
4 -20 9 0 4 -5 5 -11 1 -16 -10 -249 -10 -249 0 0 5 -8 2 -17 -5 -15 -12 -16
-12 -10 6 7 20 7 20 -8 1 -8 -11 -18 -17 -21 -13 -4 4 -1 14 7 24 9 11 4 10
-15 -5 -27 -21 -30 -21 -42 -5 -10 13 -12 13 -9 3 4 -11 -2 -15 -20 -15 -14 0
-25 4 -25 9 0 5 -8 2 -17 -5 -15 -12 -16 -12 -10 6 7 20 7 20 -8 1 -8 -11 -18
-17 -21 -13 -4 4 -1 14 7 24 9 11 4 9 -15 -5 -23 -17 -31 -20 -38 -10 -6 11
-8 11 -8 0 0 -9 -5 -10 -19 -2 -14 7 -22 7 -27 -1 -4 -8 -9 -7 -15 2 -5 8 -9
9 -9 4 0 -6 -9 -11 -20 -11 -11 0 -20 4 -20 9 0 4 -5 5 -11 1 -16 -10 -249
-10 -249 0 0 5 -8 2 -17 -5 -15 -12 -16 -12 -10 6 7 20 7 20 -8 1 -8 -11 -18
-17 -21 -13 -4 4 -1 14 7 24 9 11 4 10 -15 -5 -27 -21 -30 -21 -42 -5 -10 13
-12 13 -9 3 4 -11 -2 -15 -20 -15 -14 0 -25 4 -25 9 0 5 -8 2 -17 -5 -15 -12
-16 -12 -10 6 7 20 7 20 -8 1 -8 -11 -18 -17 -21 -13 -4 4 -1 14 7 24 9 11 4
9 -15 -5 -23 -17 -31 -20 -38 -10 -6 11 -8 11 -8 0 0 -9 -5 -10 -19 -2 -14 7
-22 7 -27 -1 -4 -8 -9 -7 -15 2 -5 8 -9 9 -9 4 0 -6 -9 -11 -20 -11 -11 0 -20
4 -20 9 0 4 -5 5 -11 1 -16 -10 -249 -10 -249 0 0 5 -8 2 -17 -5 -15 -12 -16
-12 -10 6 7 20 7 20 -8 1 -8 -11 -18 -17 -21 -13 -4 4 -1 14 7 24 9 11 4 10
-15 -5 -27 -21 -30 -21 -42 -5 -10 13 -12 13 -9 3 4 -11 -2 -15 -20 -15 -14 0
-25 4 -25 9 0 5 -8 2 -17 -5 -15 -12 -16 -12 -10 6 7 20 7 20 -8 1 -8 -11 -18
-17 -21 -13 -4 4 -1 14 7 24 9 11 4 9 -15 -5 -23 -17 -31 -20 -38 -10 -6 11
-8 11 -8 0 0 -9 -5 -10 -19 -2 -14 7 -22 7 -27 -1 -4 -8 -9 -7 -15 2 -5 8 -9
9 -9 4 0 -6 -9 -11 -20 -11 -11 0 -20 4 -20 9 0 4 -5 5 -11 1 -16 -10 -249
-10 -249 0 0 5 -8 2 -17 -5 -15 -12 -16 -12 -10 6 7 20 7 20 -8 1 -8 -11 -18
-17 -21 -13 -4 4 -1 14 7 24 9 11 4 10 -15 -5 -27 -21 -30 -21 -42 -5 -10 13
-12 13 -9 3 4 -11 -2 -15 -20 -15 -14 0 -25 4 -25 9 0 5 -8 2 -17 -5 -15 -12
-16 -12 -10 6 7 20 7 20 -8 1 -8 -11 -18 -17 -21 -13 -4 4 -1 14 7 24 9 11 4
9 -15 -5 -23 -17 -31 -20 -38 -10 -6 11 -8 11 -8 0 0 -9 -5 -10 -19 -2 -14 7
-22 7 -27 -1 -4 -8 -9 -7 -15 2 -5 8 -9 9 -9 4 0 -6 -9 -11 -20 -11 -11 0 -20
4 -20 9 0 4 -5 5 -11 1 -16 -10 -249 -10 -249 0 0 5 -8 2 -17 -5 -15 -12 -16
-12 -10 6 7 20 7 20 -8 1 -8 -11 -18 -17 -21 -13 -4 4 -1 14 7 24 9 11 4 9
-15 -5 -20 -16 -32 -19 -37 -11 -5 8 -8 7 -12 -2 -4 -10 -6 -9 -6 3 -1 9 -5
19 -10 22 -5 3 -8 -2 -7 -10 1 -13 -9 -17 -44 -16 -33 0 -44 3 -42 13 1 8 -5
5 -13 -6 -13 -16 -17 -17 -24 -6 -7 11 -9 11 -14 0 -4 -10 -6 -9 -6 3 -1 9 -5
19 -10 22 -5 3 -8 -2 -7 -10 1 -13 -9 -17 -44 -16 -33 0 -44 3 -42 13 1 8 -5
5 -13 -6 -13 -16 -17 -17 -24 -6 -7 11 -9 11 -14 0 -4 -10 -6 -9 -6 3 -1 9 -5
19 -10 22 -5 3 -8 -2 -7 -10 1 -13 -9 -17 -44 -16 -33 0 -44 3 -42 13 1 8 -5
5 -13 -6 -13 -16 -17 -17 -24 -6 -7 11 -9 11 -14 0 -4 -10 -6 -9 -6 3 -1 9 -5
19 -10 22 -5 3 -8 -2 -7 -10 1 -13 -9 -17 -44 -16 -33 0 -44 3 -42 13 1 8 -5
5 -13 -6 -14 -17 -17 -18 -25 -5 -7 11 -10 11 -10 2 0 -9 -5 -10 -19 -2 -14 7
-22 7 -27 -1 -4 -8 -9 -7 -15 2 -5 8 -9 9 -9 4 0 -6 -9 -11 -20 -11 -11 0 -20
4 -20 9 0 4 -5 5 -11 1 -16 -10 -249 -10 -249 0 0 5 -8 2 -17 -5 -15 -12 -16
-12 -10 6 7 20 7 20 -8 1 -8 -11 -18 -17 -21 -13 -4 4 -1 14 7 24 9 11 4 9
-15 -5 -23 -17 -31 -20 -38 -10 -6 11 -8 11 -8 0 0 -9 -5 -10 -19 -2 -14 7
-22 7 -27 -1 -4 -8 -9 -7 -15 2 -5 8 -9 9 -9 4 0 -6 -9 -11 -20 -11 -11 0 -20
4 -20 9 0 4 -5 5 -11 1 -16 -10 -249 -10 -249 0 0 5 -8 2 -17 -5 -15 -12 -16
-12 -10 6 7 20 7 20 -8 1 -8 -11 -18 -17 -21 -13 -4 4 -1 14 7 24 9 11 4 9
-15 -5 -23 -17 -31 -20 -38 -10 -6 11 -8 11 -8 0 0 -9 -5 -10 -19 -2 -14 7
-22 7 -27 -1 -4 -8 -9 -7 -15 2 -5 8 -9 9 -9 4 0 -6 -9 -11 -20 -11 -11 0 -20
4 -20 9 0 4 -5 5 -11 1 -20 -12 -209 -10 -209 3 0 6 -4 14 -9 17 -5 3 -8 -2
-7 -10 1 -13 -9 -17 -44 -16 -33 0 -44 3 -42 13 1 8 -5 5 -13 -6 -13 -16 -17
-17 -24 -6 -7 11 -9 11 -14 0 -4 -10 -6 -9 -6 3 -1 9 -5 19 -10 22 -5 3 -8 -2
-7 -10 1 -13 -9 -17 -44 -16 -33 0 -44 3 -42 13 1 8 -5 5 -13 -6 -13 -16 -17
-17 -24 -6 -7 11 -9 11 -14 0 -4 -10 -6 -9 -6 3 -1 9 -5 19 -10 22 -5 3 -8 -2
-7 -10 1 -13 -9 -17 -44 -16 -33 0 -44 3 -42 13 1 8 -5 5 -13 -6 -13 -16 -17
-17 -24 -6 -7 11 -9 11 -14 0 -4 -10 -6 -9 -6 3 -1 9 -5 19 -10 22 -5 3 -8 -2
-7 -10 1 -13 -9 -17 -44 -16 -33 0 -44 3 -42 13 1 8 -5 5 -13 -6 -14 -17 -17
-18 -25 -5 -7 11 -10 11 -10 2 0 -9 -5 -10 -19 -2 -14 7 -22 7 -27 -1 -4 -8
-9 -7 -15 2 -5 8 -9 9 -9 4 0 -6 -9 -11 -20 -11 -11 0 -20 4 -20 9 0 4 -5 5
-11 1 -16 -10 -249 -10 -249 0 0 5 -8 2 -17 -5 -15 -12 -16 -12 -10 6 7 20 7
20 -8 1 -8 -11 -18 -17 -21 -13 -4 4 -1 14 7 24 9 11 4 9 -15 -5 -23 -17 -31
-20 -38 -10 -6 11 -8 11 -8 0 0 -9 -5 -10 -19 -2 -14 7 -22 7 -27 -1 -4 -8 -9
-7 -15 2 -5 8 -9 9 -9 4 0 -6 -9 -11 -20 -11 -11 0 -20 4 -20 9 0 4 -5 5 -11
1 -16 -10 -249 -10 -249 0 0 5 -8 2 -17 -5 -15 -12 -16 -12 -10 6 7 20 7 20
-8 1 -8 -11 -18 -17 -21 -13 -4 4 -1 14 7 24 9 11 4 9 -15 -5 -23 -17 -31 -20
-38 -10 -6 11 -8 11 -8 0 0 -9 -5 -10 -19 -2 -14 7 -22 7 -27 -1 -4 -8 -9 -7
-15 2 -5 8 -9 9 -9 4 0 -6 -9 -11 -20 -11 -11 0 -20 4 -20 9 0 4 -5 5 -11 1
-20 -12 -209 -10 -209 3 0 6 -4 14 -9 17 -5 3 -8 -2 -7 -10 1 -13 -9 -17 -44
-16 -33 0 -44 3 -42 13 1 8 -5 5 -13 -6 -13 -16 -17 -17 -24 -6 -7 11 -9 11
-14 0 -4 -10 -6 -9 -6 3 -1 9 -5 19 -10 22 -5 3 -8 -2 -7 -10 1 -13 -9 -17
-44 -16 -33 0 -44 3 -42 13 1 8 -5 5 -13 -6 -13 -16 -17 -17 -24 -6 -7 11 -9
11 -14 0 -4 -10 -6 -9 -6 3 -1 9 -5 19 -10 22 -5 3 -8 -2 -7 -10 1 -13 -9 -17
-44 -16 -33 0 -44 3 -42 13 1 8 -5 5 -13 -6 -13 -16 -17 -17 -24 -6 -7 11 -9
11 -14 0 -4 -10 -6 -9 -6 3 -1 9 -5 19 -10 22 -5 3 -8 -2 -7 -10 1 -13 -9 -17
-44 -16 -33 0 -44 3 -42 13 1 8 -5 5 -13 -6 -14 -17 -17 -18 -25 -5 -7 11 -10
11 -10 2 0 -9 -5 -10 -19 -2 -14 7 -22 7 -27 -1 -4 -8 -9 -7 -15 2 -5 8 -9 9
-9 4 0 -6 -9 -11 -20 -11 -11 0 -20 4 -20 9 0 4 -5 5 -11 1 -16 -10 -249 -10
-249 0 0 5 -8 2 -17 -5 -15 -12 -16 -12 -10 6 7 20 7 20 -8 1 -8 -11 -18 -17
-21 -13 -4 4 -1 14 7 24 9 11 4 9 -15 -5 -23 -17 -31 -20 -38 -10 -6 11 -8 11
-8 0 0 -9 -5 -10 -19 -2 -14 7 -22 7 -27 -1 -4 -8 -9 -7 -15 2 -5 8 -9 9 -9 4
0 -6 -9 -11 -20 -11 -11 0 -20 4 -20 9 0 4 -5 5 -11 1 -16 -10 -249 -10 -249
0 0 5 -8 2 -17 -5 -15 -12 -16 -12 -10 6 7 20 7 20 -8 1 -8 -11 -18 -17 -21
-13 -4 4 -1 14 7 24 9 11 4 9 -15 -5 -23 -17 -31 -20 -38 -10 -6 11 -8 11 -8
0 0 -9 -5 -10 -19 -2 -14 7 -22 7 -27 -1 -4 -8 -9 -7 -15 2 -5 8 -9 9 -9 4 0
-6 -9 -11 -20 -11 -11 0 -20 4 -20 9 0 4 -5 5 -11 1 -20 -12 -209 -10 -209 3
0 6 -4 14 -9 17 -5 3 -8 -2 -7 -10 1 -13 -9 -17 -44 -16 -33 0 -44 3 -42 13 1
8 -5 5 -13 -6 -13 -16 -17 -17 -24 -6 -7 11 -9 11 -14 0 -4 -10 -6 -9 -6 3 -1
9 -5 19 -10 22 -5 3 -8 -2 -7 -10 1 -13 -9 -17 -44 -16 -33 0 -44 3 -42 13 1
8 -5 5 -13 -6 -13 -16 -17 -17 -24 -6 -7 11 -9 11 -14 0 -4 -10 -6 -9 -6 3 -1
9 -5 19 -10 22 -5 3 -8 -2 -7 -10 1 -13 -9 -17 -44 -16 -33 0 -44 3 -42 13 1
8 -5 5 -13 -6 -13 -16 -17 -17 -24 -6 -7 11 -9 11 -14 0 -4 -10 -6 -9 -6 3 -1
9 -5 19 -10 22 -5 3 -8 -2 -7 -10 1 -13 -9 -17 -44 -16 -33 0 -44 3 -42 13 1
8 -5 5 -13 -6 -14 -17 -17 -18 -25 -5 -7 11 -10 11 -10 2 0 -9 -5 -10 -19 -2
-14 7 -22 7 -27 -1 -4 -8 -9 -7 -15 2 -5 8 -9 9 -9 4 0 -6 -9 -11 -20 -11 -11
0 -20 4 -20 9 0 4 -5 5 -11 1 -16 -10 -249 -10 -249 0 0 5 -8 2 -17 -5 -15
-12 -16 -12 -10 6 7 20 7 20 -8 1 -8 -11 -18 -17 -21 -13 -4 4 -1 14 7 24 9
11 4 9 -15 -5 -23 -17 -31 -20 -38 -10 -6 11 -8 11 -8 0 0 -9 -5 -10 -19 -2
-14 7 -22 7 -27 -1 -4 -8 -9 -7 -15 2 -5 8 -9 9 -9 4 0 -6 -9 -11 -20 -11 -11
0 -20 4 -20 9 0 4 -5 5 -11 1 -16 -10 -249 -10 -249 0 0 5 -8 2 -17 -5 -15
-12 -16 -12 -10 6 7 20 7 20 -8 1 -8 -11 -18 -17 -21 -13 -4 4 -1 14 7 24 9
11 4 9 -15 -5 -23 -17 -31 -20 -38 -10 -6 11 -8 11 -8 0 0 -9 -5 -10 -19 -2
-14 7 -22 7 -27 -1 -4 -8 -9 -7 -15 2 -5 8 -9 9 -9 4 0 -6 -9 -11 -20 -11 -11
0 -20 4 -20 9 0 4 -5 5 -11 1 -20 -12 -209 -10 -209 3 0 6 -4 14 -9 17 -5 3
-8 -1 -7 -10 1 -13 -10 -17 -54 -19 -30 -1 -61 3 -69 9 -11 8 -13 8 -8 0 4 -7
-2 -11 -17 -11 -18 0 -22 4 -20 23 2 21 -4 36 -7 17z m56081 -4005 c0 -4 -5
-8 -11 -8 -5 0 -7 5 -4 10 3 6 2 10 -3 10 -5 0 -9 7 -9 16 0 14 2 14 14 -2 7
-10 13 -21 13 -26z m6707 -1615 c-2 -4 -26 -73 -52 -153 -56 -172 -128 -372
-180 -495 -6 -16 -27 -66 -45 -110 -50 -120 -67 -159 -123 -280 -60 -129 -229
-462 -281 -553 -20 -35 -36 -66 -36 -67 0 -8 -212 -358 -299 -495 -125 -195
-261 -390 -441 -631 -35 -47 -352 -443 -359 -449 -3 -3 -33 -36 -66 -75 -145
-169 -203 -233 -369 -409 -257 -273 -526 -534 -796 -771 -159 -139 -198 -173
-415 -354 -68 -56 -366 -289 -471 -368 -459 -344 -1223 -847 -1604 -1056 -30
-17 -71 -40 -90 -52 -19 -12 -60 -36 -90 -52 -383 -212 -443 -245 -641 -347
l-144 -75 -2 -53 c0 -29 -2 -59 -2 -65 -1 -18 -81 -57 -82 -41 0 7 -1 1443 -2
3191 l-2 3178 25 5 c14 3 33 7 43 9 9 2 17 -1 17 -7 0 -9 155 -2 171 8 3 2 33
6 65 9 32 4 70 8 84 10 14 2 54 6 90 10 36 4 79 9 95 11 17 2 55 6 85 10 30 3
66 7 80 9 14 2 52 7 85 10 33 3 92 10 130 15 39 5 97 12 130 15 33 3 74 8 90
10 17 2 57 7 90 10 33 4 74 8 90 10 17 2 57 7 90 10 72 7 136 14 190 20 22 3
63 7 90 10 28 3 68 8 90 10 22 3 67 7 100 10 33 3 78 8 100 10 22 3 67 7 100
10 33 3 76 8 95 10 19 2 67 7 105 10 39 4 81 8 95 10 14 2 57 7 95 10 39 3 86
8 105 10 19 3 64 7 100 10 36 3 81 8 100 10 64 8 164 17 210 20 41 2 123 10
210 20 19 2 73 7 120 11 47 3 93 8 103 10 9 1 56 6 105 9 48 4 103 8 122 10
19 2 73 7 120 10 47 3 96 8 110 10 14 2 66 7 115 10 50 4 101 8 115 10 14 2
66 7 115 10 50 3 108 8 130 10 22 3 76 7 120 10 44 3 100 7 125 10 25 3 81 7
125 11 44 3 98 7 120 9 22 1 85 6 140 10 55 4 116 9 135 11 19 1 78 6 130 9
52 3 111 8 130 10 19 3 78 7 130 10 52 3 124 8 160 11 36 2 97 7 135 9 39 2
111 7 160 11 50 4 113 8 140 9 84 5 270 17 272 19 8 6 174 6 170 -1z"/>
<path d="M58739 68208 c-7 -23 -4 -35 7 -35 9 0 11 4 4 12 -5 7 -7 15 -3 18 3
4 3 7 0 7 -4 0 -7 -1 -8 -2z"/>
<path d="M58867 68199 c7 -7 15 -10 18 -7 3 3 -2 9 -12 12 -14 6 -15 5 -6 -5z"/>
<path d="M7395 68189 c-4 -6 -5 -12 -2 -15 2 -3 7 2 10 11 7 17 1 20 -8 4z"/>
<path d="M58616 68187 c3 -10 9 -15 12 -12 3 3 0 11 -7 18 -10 9 -11 8 -5 -6z"/>
<path d="M58953 68185 c0 -8 3 -13 5 -10 3 3 12 -1 21 -7 10 -8 9 -4 -3 10
-23 26 -23 26 -23 7z"/>
<path d="M7570 68179 c0 -5 5 -7 10 -4 6 3 10 8 10 11 0 2 -4 4 -10 4 -5 0
-10 -5 -10 -11z"/>
<path d="M59016 68178 c3 -5 10 -6 15 -3 13 9 11 12 -6 12 -8 0 -12 -4 -9 -9z"/>
<path d="M59050 68181 c0 -6 4 -13 10 -16 6 -3 7 1 4 9 -7 18 -14 21 -14 7z"/>
<path d="M7110 68162 c0 -5 7 -9 15 -9 8 0 12 4 9 9 -3 4 -9 8 -15 8 -5 0 -9
-4 -9 -8z"/>
<path d="M59230 68159 c0 -5 5 -7 10 -4 6 3 10 8 10 11 0 2 -4 4 -10 4 -5 0
-10 -5 -10 -11z"/>
<path d="M6855 68151 c-3 -5 -2 -12 3 -15 5 -3 9 1 9 9 0 17 -3 19 -12 6z"/>
<path d="M6995 68151 c-3 -5 -2 -12 3 -15 5 -3 9 1 9 9 0 17 -3 19 -12 6z"/>
<path d="M59299 68158 c-5 -18 -6 -38 -1 -34 7 8 12 36 6 36 -2 0 -4 -1 -5 -2z"/>
<path d="M59245 68139 c-3 -4 2 -6 10 -5 21 3 28 13 10 13 -9 0 -18 -4 -20 -8z"/>
<path d="M59373 68135 c0 -8 4 -12 9 -9 5 3 6 10 3 15 -9 13 -12 11 -12 -6z"/>
<path d="M6790 68126 c0 -2 7 -7 16 -10 8 -3 12 -2 9 4 -6 10 -25 14 -25 6z"/>
<path d="M6646 68105 c-18 -14 -18 -14 1 -12 11 0 20 7 20 14 0 7 -1 13 -1 13
-1 0 -9 -7 -20 -15z"/>
<path d="M59475 68100 c-3 -5 -1 -10 4 -10 6 0 11 5 11 10 0 6 -2 10 -4 10 -3
0 -8 -4 -11 -10z"/>
<path d="M6590 68096 c0 -2 8 -10 18 -17 15 -13 16 -12 3 4 -13 16 -21 21 -21
13z"/>
<path d="M6536 68058 c3 -5 10 -6 15 -3 13 9 11 12 -6 12 -8 0 -12 -4 -9 -9z"/>
<path d="M59670 68061 c0 -6 4 -12 8 -15 5 -3 9 1 9 9 0 8 -4 15 -9 15 -4 0
-8 -4 -8 -9z"/>
<path d="M6372 68040 c2 -9 -3 -14 -12 -12 -8 2 -11 0 -7 -4 4 -4 14 -9 21
-10 14 -2 16 20 2 33 -4 4 -6 1 -4 -7z"/>
<path d="M59879 68013 c-13 -16 -12 -17 4 -4 16 13 21 21 13 21 -2 0 -10 -8
-17 -17z"/>
<path d="M6270 68016 c0 -2 8 -10 18 -17 15 -13 16 -12 3 4 -13 16 -21 21 -21
13z"/>
<path d="M59915 68009 c-4 -6 -5 -12 -2 -15 2 -3 7 2 10 11 7 17 1 20 -8 4z"/>
<path d="M6179 67998 c-5 -18 -6 -38 -1 -34 7 8 12 36 6 36 -2 0 -4 -1 -5 -2z"/>
<path d="M6213 67987 c0 -8 6 -14 14 -14 9 0 10 4 2 14 -6 7 -12 13 -14 13 -1
0 -2 -6 -2 -13z"/>
<path d="M59970 67996 c0 -2 8 -10 18 -17 15 -13 16 -12 3 4 -13 16 -21 21
-21 13z"/>
<path d="M60126 67942 c-3 -5 1 -9 9 -9 8 0 12 4 9 9 -3 4 -7 8 -9 8 -2 0 -6
-4 -9 -8z"/>
<path d="M60195 67911 c-3 -5 -2 -12 3 -15 5 -3 9 1 9 9 0 17 -3 19 -12 6z"/>
<path d="M5746 67822 l-19 -27 24 22 c12 12 21 24 18 27 -2 2 -13 -8 -23 -22z"/>
<path d="M5709 67823 c-13 -16 -12 -17 4 -4 9 7 17 15 17 17 0 8 -8 3 -21 -13z"/>
<path d="M60441 67824 c0 -11 3 -14 6 -6 3 7 2 16 -1 19 -3 4 -6 -2 -5 -13z"/>
<path d="M60476 67821 c-3 -5 2 -15 12 -22 15 -12 16 -12 5 2 -7 9 -10 19 -6
22 3 4 4 7 0 7 -3 0 -8 -4 -11 -9z"/>
<path d="M60515 67800 c-3 -5 -1 -10 4 -10 6 0 11 5 11 10 0 6 -2 10 -4 10 -3
0 -8 -4 -11 -10z"/>
<path d="M5616 67773 c-6 -14 -5 -15 5 -6 7 7 10 15 7 18 -3 3 -9 -2 -12 -12z"/>
<path d="M60554 67776 c1 -8 5 -18 8 -22 4 -3 5 1 4 10 -1 8 -5 18 -8 22 -4 3
-5 -1 -4 -10z"/>
<path d="M60611 67746 c-9 -10 -8 -15 2 -19 8 -3 13 3 13 14 0 23 0 23 -15 5z"/>
<path d="M60753 67703 c4 -3 1 -13 -6 -22 -11 -14 -10 -14 5 -2 16 12 16 31 1
31 -4 0 -3 -3 0 -7z"/>
<path d="M5393 67665 c0 -8 4 -12 9 -9 5 3 6 10 3 15 -9 13 -12 11 -12 -6z"/>
<path d="M60833 67663 c4 -3 1 -13 -6 -22 -11 -14 -10 -14 5 -2 16 12 16 31 1
31 -4 0 -3 -3 0 -7z"/>
<path d="M5316 67642 c-2 -4 -1 -14 4 -22 7 -11 9 -9 7 8 -1 24 -3 26 -11 14z"/>
<path d="M60930 67600 c0 -5 5 -10 11 -10 5 0 7 5 4 10 -3 6 -8 10 -11 10 -2
0 -4 -4 -4 -10z"/>
<path d="M60989 67563 c-13 -16 -12 -17 4 -4 9 7 17 15 17 17 0 8 -8 3 -21
-13z"/>
<path d="M61011 67547 c-8 -10 -7 -14 2 -14 8 0 14 6 14 14 0 7 -1 13 -2 13
-2 0 -8 -6 -14 -13z"/>
<path d="M5126 67542 c-3 -5 1 -9 9 -9 8 0 12 4 9 9 -3 4 -7 8 -9 8 -2 0 -6
-4 -9 -8z"/>
<path d="M5166 67538 c3 -5 10 -6 15 -3 13 9 11 12 -6 12 -8 0 -12 -4 -9 -9z"/>
<path d="M5059 67493 c-13 -16 -12 -17 4 -4 9 7 17 15 17 17 0 8 -8 3 -21 -13z"/>
<path d="M61096 67501 c8 -8 43 -8 38 0 -2 4 -13 7 -24 6 -10 -1 -17 -3 -14
-6z"/>
<path d="M61236 67427 c3 -10 9 -15 12 -12 3 3 0 11 -7 18 -10 9 -11 8 -5 -6z"/>
<path d="M4947 67419 c7 -7 15 -10 18 -7 3 3 -2 9 -12 12 -14 6 -15 5 -6 -5z"/>
<path d="M61266 67402 c-2 -4 4 -8 14 -8 10 0 16 4 14 8 -3 4 -9 8 -14 8 -5 0
-11 -4 -14 -8z"/>
<path d="M4806 67342 c-3 -5 1 -9 9 -9 8 0 12 4 9 9 -3 4 -7 8 -9 8 -2 0 -6
-4 -9 -8z"/>
<path d="M61370 67341 c0 -6 4 -13 10 -16 6 -3 7 1 4 9 -7 18 -14 21 -14 7z"/>
<path d="M4655 67229 c-4 -6 -5 -12 -2 -15 2 -3 7 2 10 11 7 17 1 20 -8 4z"/>
<path d="M61686 67102 c-2 -4 4 -8 14 -8 10 0 16 4 14 8 -3 4 -9 8 -14 8 -5 0
-11 -4 -14 -8z"/>
<path d="M4415 67029 c-4 -6 -5 -12 -2 -15 2 -3 7 2 10 11 7 17 1 20 -8 4z"/>
<path d="M61826 66978 c3 -5 9 -7 12 -4 3 3 12 0 21 -6 13 -10 14 -10 4 2 -15
16 -46 23 -37 8z"/>
<path d="M61916 66922 c-3 -5 1 -9 9 -9 8 0 12 4 9 9 -3 4 -7 8 -9 8 -2 0 -6
-4 -9 -8z"/>
<path d="M61956 66867 c3 -10 9 -15 12 -12 3 3 0 11 -7 18 -10 9 -11 8 -5 -6z"/>
<path d="M4175 66829 c-4 -6 -5 -12 -2 -15 2 -3 7 2 10 11 7 17 1 20 -8 4z"/>
<path d="M4105 66779 c-3 -4 2 -6 10 -5 21 3 28 13 10 13 -9 0 -18 -4 -20 -8z"/>
<path d="M4070 66741 c0 -6 4 -12 8 -15 5 -3 9 1 9 9 0 8 -4 15 -9 15 -4 0 -8
-4 -8 -9z"/>
<path d="M62156 66678 c3 -5 10 -6 15 -3 13 9 11 12 -6 12 -8 0 -12 -4 -9 -9z"/>
<path d="M4009 66663 c-13 -16 -12 -17 4 -4 9 7 17 15 17 17 0 8 -8 3 -21 -13z"/>
<path d="M62216 66627 c3 -10 9 -15 12 -12 3 3 0 11 -7 18 -10 9 -11 8 -5 -6z"/>
<path d="M3936 66593 c-6 -14 -5 -15 5 -6 7 7 10 15 7 18 -3 3 -9 -2 -12 -12z"/>
<path d="M62376 66462 c-3 -5 1 -9 9 -9 8 0 12 4 9 9 -3 4 -7 8 -9 8 -2 0 -6
-4 -9 -8z"/>
<path d="M3780 66420 c-9 -6 -10 -10 -3 -10 6 0 15 5 18 10 8 12 4 12 -15 0z"/>
<path d="M62473 66347 c0 -8 6 -14 14 -14 9 0 10 4 2 14 -6 7 -12 13 -14 13
-1 0 -2 -6 -2 -13z"/>
<path d="M62580 66206 c0 -2 8 -10 18 -17 15 -13 16 -12 3 4 -13 16 -21 21
-21 13z"/>
<path d="M62735 66000 c-3 -5 -1 -10 4 -10 6 0 11 5 11 10 0 6 -2 10 -4 10 -3
0 -8 -4 -11 -10z"/>
<path d="M3210 65639 c0 -5 5 -7 10 -4 6 3 10 8 10 11 0 2 -4 4 -10 4 -5 0
-10 -5 -10 -11z"/>
<path d="M3176 65575 c-9 -26 -7 -32 5 -12 6 10 9 21 6 23 -2 3 -7 -2 -11 -11z"/>
<path d="M63067 65459 c7 -7 15 -10 18 -7 3 3 -2 9 -12 12 -14 6 -15 5 -6 -5z"/>
<path d="M63110 65371 c0 -6 4 -13 10 -16 6 -3 7 1 4 9 -7 18 -14 21 -14 7z"/>
<path d="M63535 64281 c-6 -11 13 -26 22 -17 4 3 1 6 -6 6 -7 0 -9 5 -6 10 3
6 4 10 1 10 -3 0 -7 -4 -11 -9z"/>
</g>
</svg>
